<svg id="Layer_1" data-name="Layer 1" xmlns="http://www.w3.org/2000/svg" viewBox="0 0 499.54 499.54"><defs><style>.cls-1{fill:#0071c5;}.cls-2{opacity:0.5;}</style></defs><path class="cls-1" d="M425.55,176V76.7H326.22l-73-73-73,73H77V180L6.74,250.18,77,320.41v99.33h99.33l73,73,73-73H425.56V316.49l70.23-70.23ZM412.27,311.29v95.37H316.9l-13.07,13.08-54.37,54.37L182,406.67H90.26V314.91L77,301.63,25.38,250,77,198.43l13.29-13.28V89.78h95.37l13-13.08,54.37-54.37,67.44,67.44h91.76v91.76l13.28,13.28,51.6,51.6L425.56,298Z"/><path class="cls-1" d="M311.12,152.93a1.18,1.18,0,0,1,0,.2h0A1.17,1.17,0,0,0,311.12,152.93Z"/><path class="cls-1" d="M299.8,216.78l-.07.19v-.21Z"/><path class="cls-1" d="M166.4,311.22h-3.27l2.05-9.67c.23-1,.52-2.18.88-3.46H166l-.33.72c-.12.24-.23.47-.35.68s-.21.41-.31.58-.19.3-.26.41l-4.33,5.9h-2.55l-1.68-5.79a3.59,3.59,0,0,1-.11-.53,6.36,6.36,0,0,1-.05-.77v-1.2h-.1c-.1.71-.21,1.35-.31,2s-.19,1.09-.27,1.5l-2.07,9.68H150l3.44-16.16h4.33l1.66,5.61c0,.18.1.37.14.58s.09.41.12.62.05.41.06.6a4.92,4.92,0,0,1,0,.51h.05l.27-.56.29-.63c.1-.21.21-.42.32-.62a4.7,4.7,0,0,1,.34-.52l4.13-5.59h4.69Z"/><path class="cls-1" d="M180.62,311.22l-.47-3.59h-5.79l-1.9,3.59h-4.1l9.32-16.16H182l2.32,16.16Zm-1.32-11.85c0-.12,0-.25,0-.4v-.42c0-.13,0-.26,0-.37a1.34,1.34,0,0,1,0-.24h-.07a1.23,1.23,0,0,1-.08.26l-.13.35a4.07,4.07,0,0,1-.17.38c-.06.14-.13.27-.19.4l-3,5.5h4.16Z"/><path class="cls-1" d="M200.29,311.22h-3.66l1.37-6.54h-6.64L190,311.22H186.3l3.44-16.16h3.67L192,301.5h6.65l1.38-6.44h3.67Z"/><path class="cls-1" d="M214.5,311.22l-.47-3.59h-5.79l-1.9,3.59h-4.1l9.32-16.16h4.34l2.32,16.16Zm-1.32-11.85c0-.12,0-.25,0-.4v-.42c0-.13,0-.26,0-.37a1.34,1.34,0,0,1,0-.24h-.07a1.23,1.23,0,0,1-.08.26l-.13.35a4.07,4.07,0,0,1-.17.38c-.06.14-.13.27-.19.4l-3,5.5h4.16Z"/><path class="cls-1" d="M234.24,298.71a4.1,4.1,0,0,1-.25,1.41,3.66,3.66,0,0,1-.74,1.18,4.47,4.47,0,0,1-1.21.89,6,6,0,0,1-1.68.55v.05a4.05,4.05,0,0,1,1.34.41,3.41,3.41,0,0,1,1,.74,2.75,2.75,0,0,1,.58,1,3.54,3.54,0,0,1,.2,1.19,4.85,4.85,0,0,1-.43,2,4.54,4.54,0,0,1-1.29,1.62,6.26,6.26,0,0,1-2.13,1.07,10.35,10.35,0,0,1-3,.39h-6.41l3.44-16.16h5.72a8.15,8.15,0,0,1,2.25.27,4.26,4.26,0,0,1,1.52.77,2.94,2.94,0,0,1,.86,1.16A3.86,3.86,0,0,1,234.24,298.71Zm-4.66,7.43a1.68,1.68,0,0,0-.59-1.35,2.58,2.58,0,0,0-1.74-.51h-1.92l-.92,4.26h2a4.7,4.7,0,0,0,1.44-.19,2.63,2.63,0,0,0,1-.51,2.06,2.06,0,0,0,.56-.76A2.42,2.42,0,0,0,229.58,306.14Zm.82-6.72a2.25,2.25,0,0,0-.11-.71,1.3,1.3,0,0,0-.38-.52,2,2,0,0,0-.68-.33,3.73,3.73,0,0,0-1-.12h-1.5l-.84,3.83h1.72a4.25,4.25,0,0,0,1.17-.15,2.78,2.78,0,0,0,.88-.43,1.86,1.86,0,0,0,.56-.69A2,2,0,0,0,230.4,299.42Z"/><path class="cls-1" d="M245.69,311.22l-.46-3.59h-5.8l-1.89,3.59h-4.1l9.32-16.16h4.34l2.31,16.16Zm-1.32-11.85c0-.12,0-.25,0-.4a2.94,2.94,0,0,1,0-.42c0-.13,0-.26,0-.37s0-.19,0-.24h-.06a2.38,2.38,0,0,1-.08.26l-.13.35-.17.38c-.06.14-.13.27-.2.4l-2.95,5.5H245Z"/><path class="cls-1" d="M263.59,298H259l-2.8,13.2h-3.66l2.78-13.2h-4.61l.65-3h12.84Z"/><path class="cls-1" d="M285.77,311.22H282.5l2.05-9.67c.23-1,.52-2.18.88-3.46h-.09q-.15.36-.33.72l-.34.68c-.12.22-.22.41-.32.58s-.18.3-.26.41l-4.33,5.9h-2.54l-1.69-5.79a3.9,3.9,0,0,1-.1-.53,4.82,4.82,0,0,1-.05-.77v-1.2h-.1c-.11.71-.21,1.35-.31,2s-.2,1.09-.28,1.5l-2.06,9.68h-3.29l3.44-16.16h4.33l1.66,5.61c.05.18.1.37.15.58s.08.41.11.62.05.41.07.6,0,.36,0,.51h.06c.08-.16.17-.35.26-.56s.19-.41.29-.63.21-.42.33-.62a4.71,4.71,0,0,1,.33-.52l4.13-5.59h4.69Z"/><path class="cls-1" d="M304,304.64a16.94,16.94,0,0,1-.87,2.86,6.84,6.84,0,0,1-1.41,2.17,5.66,5.66,0,0,1-2.17,1.36,9.14,9.14,0,0,1-3.16.48,7.39,7.39,0,0,1-2.44-.38,5,5,0,0,1-1.84-1.07,4.71,4.71,0,0,1-1.16-1.72,6.11,6.11,0,0,1-.4-2.29,8.66,8.66,0,0,1,.09-1.29c.06-.47.13-.91.22-1.32l1.8-8.38h3.68l-1.83,8.41c-.08.39-.15.79-.22,1.19a6,6,0,0,0-.1,1,3.15,3.15,0,0,0,.19,1.15,2.29,2.29,0,0,0,.56.84,2.15,2.15,0,0,0,.83.51,2.9,2.9,0,0,0,1,.18,3.59,3.59,0,0,0,1.2-.19,2.61,2.61,0,0,0,1-.63,4.41,4.41,0,0,0,.78-1.17,8.73,8.73,0,0,0,.56-1.8l2.05-9.51h3.68ZM298.83,292a1.39,1.39,0,0,1-.13.61,1.26,1.26,0,0,1-.35.5,1.63,1.63,0,0,1-.54.33,1.76,1.76,0,0,1-.71.13,1.87,1.87,0,0,1-.71-.13,1.55,1.55,0,0,1-.55-.34,1.42,1.42,0,0,1-.37-.5,1.54,1.54,0,0,1-.13-.6,1.41,1.41,0,0,1,.14-.62,1.35,1.35,0,0,1,.37-.48,2,2,0,0,1,.56-.31,2.25,2.25,0,0,1,1.39,0,1.77,1.77,0,0,1,.55.32,1.3,1.3,0,0,1,.35.48A1.39,1.39,0,0,1,298.83,292Zm5.15,0a1.54,1.54,0,0,1-.12.61,1.35,1.35,0,0,1-.34.5,1.58,1.58,0,0,1-.55.33,2,2,0,0,1-1.43,0,1.55,1.55,0,0,1-.55-.34,1.5,1.5,0,0,1-.35-.5,1.53,1.53,0,0,1-.12-.6,1.41,1.41,0,0,1,.13-.62,1.44,1.44,0,0,1,.36-.48,2,2,0,0,1,.56-.31,2.22,2.22,0,0,1,1.38,0,1.56,1.56,0,0,1,.55.32,1.32,1.32,0,0,1,.36.48A1.54,1.54,0,0,1,304,292Z"/><path class="cls-1" d="M322.48,301.6a12.07,12.07,0,0,1-.26,2.48,9.59,9.59,0,0,1-.78,2.28,8.43,8.43,0,0,1-1.33,2,8.07,8.07,0,0,1-1.88,1.53,9.53,9.53,0,0,1-2.48,1,12.23,12.23,0,0,1-3.08.36h-6.54l3.44-16.16h5.69a9.26,9.26,0,0,1,3.12.48,6.19,6.19,0,0,1,2.26,1.35A5.5,5.5,0,0,1,322,299,7.26,7.26,0,0,1,322.48,301.6Zm-3.85.28a4.83,4.83,0,0,0-.26-1.62,3,3,0,0,0-.78-1.21,3.42,3.42,0,0,0-1.32-.76,5.94,5.94,0,0,0-1.89-.27h-1.77l-2.18,10.25h2.22a6.34,6.34,0,0,0,2.48-.46,5.09,5.09,0,0,0,1.88-1.29,5.83,5.83,0,0,0,1.2-2A7.78,7.78,0,0,0,318.63,301.88Z"/><path class="cls-1" d="M327.19,311.22h-3.67l3.41-16.16h3.68Z"/><path class="cls-1" d="M345,299.17a4.51,4.51,0,0,1-.38,1.86,4.27,4.27,0,0,1-1,1.43,5.07,5.07,0,0,1-1.51,1,6.51,6.51,0,0,1-1.84.52v0a2.41,2.41,0,0,1,1.2.86,4.21,4.21,0,0,1,.74,1.68l1.13,4.66h-3.9l-.88-4.16a2.92,2.92,0,0,0-.71-1.51,1.84,1.84,0,0,0-1.39-.52h-.62l-1.32,6.19h-3.67l3.43-16.16h5.53a7.64,7.64,0,0,1,2.4.33,4.37,4.37,0,0,1,1.61.9,3.42,3.42,0,0,1,.91,1.31A4.59,4.59,0,0,1,345,299.17Zm-3.88.6a1.94,1.94,0,0,0-.55-1.46,2.36,2.36,0,0,0-1.67-.53h-1.52l-1,4.5h1.47a4.48,4.48,0,0,0,1.45-.21,3,3,0,0,0,1-.55,2.19,2.19,0,0,0,.59-.8A2.38,2.38,0,0,0,341.12,299.77Z"/><path class="cls-1" d="M355.27,311.22h-9.65l3.44-16.16h3.67l-2.8,13.16h6Z"/><path class="cls-1" d="M361.12,311.22h-3.68l3.42-16.16h3.68Z"/><path class="cls-1" d="M379.66,299a6.85,6.85,0,0,0-.82-.46,5.44,5.44,0,0,0-1-.38,9.41,9.41,0,0,0-1.16-.27,7.51,7.51,0,0,0-1.27-.1,6.68,6.68,0,0,0-2.54.46,5.32,5.32,0,0,0-3.14,3.28,7.31,7.31,0,0,0-.43,2.58,5.51,5.51,0,0,0,.29,1.84,3.65,3.65,0,0,0,.8,1.37,3.48,3.48,0,0,0,1.27.84,4.42,4.42,0,0,0,1.66.29,5.76,5.76,0,0,0,1-.07c.26-.05.51-.11.72-.17l.69-3.28h-3.28l.62-2.91H380l-1.73,8.19c-.33.16-.68.31-1.06.46a12.74,12.74,0,0,1-2.71.69,12.58,12.58,0,0,1-1.68.11,8.89,8.89,0,0,1-3.11-.52,6.4,6.4,0,0,1-2.3-1.47,6.27,6.27,0,0,1-1.43-2.27,8.3,8.3,0,0,1-.5-2.93,10.61,10.61,0,0,1,.28-2.46,9.72,9.72,0,0,1,.84-2.26,8.6,8.6,0,0,1,1.4-2,8.49,8.49,0,0,1,2-1.52,10.42,10.42,0,0,1,2.53-1,12.56,12.56,0,0,1,3.1-.36,11.22,11.22,0,0,1,1.46.09c.47.06.9.13,1.31.22s.78.19,1.12.3.65.21.92.32Z"/><path class="cls-1" d="M384.81,311.22h-3.68l3.42-16.16h3.67Z"/><g class="cls-2"><polygon class="cls-1" points="192.77 180.88 203.4 221.08 190.59 261.29 176.35 208.77 192.77 180.88"/><polygon class="cls-1" points="240.73 181.63 260.42 240.85 243.8 283.15 225.87 215.81 240.73 181.63"/><polygon class="cls-1" points="304.33 181.63 315.53 213.29 302.97 242.69 292.83 214.55 304.33 181.63"/><polygon class="cls-1" points="390.82 282.52 352.67 181.76 337 218.69 360.25 283.02 390.82 282.52"/></g><path class="cls-1" d="M108.4,311.7l56.84-130.63H193.1L139.27,312.45S109.52,310.57,108.4,311.7Z"/><polygon class="cls-1" points="190.59 261 214.18 181.44 241.29 181.44 216.19 260.75 190.59 261"/><polygon class="cls-1" points="243.3 283.34 277.68 181.19 305.04 181.19 274.67 283.34 243.3 283.34"/><polygon class="cls-1" points="302.78 242.43 326.12 181.69 352.47 181.69 327.63 242.68 302.78 242.43"/></svg>