<svg id="Layer_1" data-name="Layer 1" xmlns="http://www.w3.org/2000/svg" viewBox="0 0 217.61 65"><defs><style>.cls-1{fill:#fff;}.cls-2{fill:#4587e5;}.cls-3{fill:#93b6f5;}</style></defs><rect class="cls-1" width="217.61" height="65" rx="8.16"/><path class="cls-2" d="M45.76,33.06a9.37,9.37,0,0,1,4.46-7.86,9.59,9.59,0,0,0-7.56-4.08c-3.18-.34-6.26,1.9-7.88,1.9S30.64,21.15,28,21.21a10.08,10.08,0,0,0-8.47,5.16c-3.65,6.34-.93,15.65,2.58,20.78,1.76,2.51,3.81,5.31,6.49,5.21s3.61-1.67,6.77-1.67,4.07,1.67,6.8,1.61,4.59-2.52,6.29-5.06a20.5,20.5,0,0,0,2.87-5.85,9,9,0,0,1-5.52-8.33"/><path class="cls-2" d="M40.58,17.75a9.19,9.19,0,0,0,2.11-6.61,9.4,9.4,0,0,0-6.07,3.14,8.78,8.78,0,0,0-2.16,6.36,7.7,7.7,0,0,0,6.12-2.89"/><path class="cls-2" d="M75.61,17.24l-.83-2.59c-.2-.64-.37-1.36-.53-2h0c-.15.61-.31,1.34-.5,2l-.81,2.59Zm-3,1.45-.91,3h-2l3.37-10.52h2.45L79,21.67H76.89l-1-3"/><path class="cls-2" d="M81.82,14.07l1.23,3.85c.22.68.37,1.28.52,1.91h0c.14-.63.31-1.22.52-1.91l1.22-3.85h2l-2.9,7.6H82.57l-2.83-7.6"/><path class="cls-2" d="M93.15,18c-1.36,0-2.66.27-2.66,1.43a1,1,0,0,0,1.1,1.09,1.56,1.56,0,0,0,1.51-1,1.21,1.21,0,0,0,.05-.42ZM95,19.85a9.63,9.63,0,0,0,.13,1.82H93.41l-.13-.84h0a2.78,2.78,0,0,1-2.25,1,2.25,2.25,0,0,1-2.39-2.26c0-1.91,1.7-2.89,4.51-2.87v-.13c0-.5-.2-1.32-1.54-1.32a4,4,0,0,0-2,.56l-.37-1.25a5.39,5.39,0,0,1,2.75-.67c2.43,0,3.13,1.54,3.13,3.22"/><path class="cls-2" d="M97.74,14.07h1.92v7.6H97.74Zm1-1.09a1,1,0,1,1,1.09-1,1,1,0,0,1-1.09,1"/><path class="cls-2" d="M102.42,21.67h1.92V10.57h-1.92Z"/><path class="cls-2" d="M111.14,18c-1.36,0-2.65.27-2.65,1.43a1,1,0,0,0,1.09,1.09,1.59,1.59,0,0,0,1.52-1,1.5,1.5,0,0,0,0-.42Zm1.87,1.9a10.54,10.54,0,0,0,.13,1.82h-1.73l-.14-.84h0a2.78,2.78,0,0,1-2.25,1,2.25,2.25,0,0,1-2.39-2.26c0-1.91,1.71-2.89,4.52-2.87v-.13c0-.5-.21-1.32-1.55-1.32a4,4,0,0,0-2,.56l-.38-1.25a5.39,5.39,0,0,1,2.75-.67c2.43,0,3.13,1.54,3.13,3.22"/><path class="cls-2" d="M117.65,18.53a2.24,2.24,0,0,0,0,.46,1.75,1.75,0,0,0,1.7,1.34c1.2,0,1.93-.95,1.93-2.5,0-1.34-.64-2.43-1.92-2.43a1.79,1.79,0,0,0-1.7,1.4,2.45,2.45,0,0,0-.06.5Zm-1.92-8h1.92v4.55h0a2.75,2.75,0,0,1,2.44-1.22c1.86,0,3.18,1.54,3.16,3.86,0,2.73-1.73,4.09-3.45,4.09a2.62,2.62,0,0,1-2.4-1.32h0l-.09,1.14h-1.64c0-.51.06-1.36.06-2.12"/><path class="cls-2" d="M125.55,21.67h1.91V10.57h-1.91Z"/><path class="cls-2" d="M134.94,17.07a1.64,1.64,0,0,0-1.57-1.86,1.89,1.89,0,0,0-1.77,1.86Zm-3.34,1.34a2.07,2.07,0,0,0,2.34,2,6,6,0,0,0,2.11-.35l.28,1.31a6.66,6.66,0,0,1-2.65.49A3.6,3.6,0,0,1,129.76,18c0-2.11,1.28-4.09,3.72-4.09s3.27,2,3.27,3.7a4.86,4.86,0,0,1-.06.81"/><path class="cls-2" d="M146.29,20.45c1.09,0,1.85-1.06,1.85-2.6,0-1.19-.53-2.56-1.84-2.56s-1.9,1.33-1.9,2.59c0,1.47.73,2.57,1.87,2.57Zm-.06,1.4a3.67,3.67,0,0,1-3.81-3.92,3.75,3.75,0,0,1,3.93-4,3.65,3.65,0,0,1,3.78,3.9,3.77,3.77,0,0,1-3.89,4.05"/><path class="cls-2" d="M152.39,16.33c0-.87,0-1.61-.06-2.26H154l.1,1.14h0a2.79,2.79,0,0,1,2.43-1.31c1.33,0,2.7.86,2.7,3.26v4.51h-1.92V17.38c0-1.09-.41-1.92-1.45-1.92a1.62,1.62,0,0,0-1.5,1.12,1.87,1.87,0,0,0-.09.61v4.48h-1.92"/><path class="cls-2" d="M168.12,12.12v2h1.82v1.44h-1.82v3.34c0,.93.25,1.4,1,1.4a2.29,2.29,0,0,0,.75-.08l0,1.45a3.93,3.93,0,0,1-1.39.21,2.2,2.2,0,0,1-1.65-.63,3,3,0,0,1-.61-2.14V15.51h-1.08V14.07h1.08V12.65"/><path class="cls-2" d="M172.08,10.57H174V15.1h0a2.57,2.57,0,0,1,1-.86,2.78,2.78,0,0,1,1.32-.34c1.3,0,2.65.86,2.65,3.29v4.48h-1.91V17.4c0-1.1-.41-1.94-1.47-1.94a1.6,1.6,0,0,0-1.5,1.08,1.77,1.77,0,0,0-.08.58v4.55h-1.92"/><path class="cls-2" d="M186.39,17.07a1.63,1.63,0,0,0-1.57-1.86,1.89,1.89,0,0,0-1.77,1.86Zm-3.34,1.34a2.07,2.07,0,0,0,2.34,2A6,6,0,0,0,187.5,20l.28,1.31a6.63,6.63,0,0,1-2.65.49A3.6,3.6,0,0,1,181.21,18c0-2.11,1.28-4.09,3.71-4.09s3.28,2,3.28,3.7a4.86,4.86,0,0,1-.06.81"/><path class="cls-2" d="M80.39,41.82l-1.81-5.6c-.19-.57-.55-1.92-1.08-4h-.06c-.21.91-.56,2.25-1,4l-1.78,5.6Zm6.27,8.94H83l-2-6.3H74l-1.91,6.3H68.56l6.91-21.44h4.26"/><path class="cls-2" d="M100.91,43a6.39,6.39,0,0,0-1-3.73,3.65,3.65,0,0,0-5.29-.68,4,4,0,0,0-1.36,2.22,4.72,4.72,0,0,0-.16,1V44.4a4.11,4.11,0,0,0,1,2.84A3.4,3.4,0,0,0,96.8,48.4a3.48,3.48,0,0,0,3-1.49A6.52,6.52,0,0,0,100.91,43m3.5-.13a8.77,8.77,0,0,1-2.13,6.23,6.25,6.25,0,0,1-4.74,2,4.74,4.74,0,0,1-4.39-2.2h-.07v8.15H89.65V40.39c0-1.65,0-3.35-.13-5.09h3l.19,2.45h.07a6.1,6.1,0,0,1,9.78-.6,8.51,8.51,0,0,1,1.83,5.69"/><path class="cls-2" d="M118.69,43a6.39,6.39,0,0,0-1-3.73,3.54,3.54,0,0,0-3-1.52,3.57,3.57,0,0,0-2.31.84A3.9,3.9,0,0,0,111,40.78a4.19,4.19,0,0,0-.16,1V44.4a4.14,4.14,0,0,0,1,2.84,3.42,3.42,0,0,0,2.69,1.16,3.48,3.48,0,0,0,3-1.49A6.59,6.59,0,0,0,118.69,43m3.49-.13a8.73,8.73,0,0,1-2.13,6.23,6.21,6.21,0,0,1-4.73,2,4.77,4.77,0,0,1-4.4-2.2h0v8.15h-3.44V40.39c0-1.65,0-3.35-.13-5.09h3l.19,2.45h.07a6.1,6.1,0,0,1,9.78-.6,8.51,8.51,0,0,1,1.82,5.69"/><path class="cls-2" d="M142.07,44.75a5.73,5.73,0,0,1-1.91,4.45,8.45,8.45,0,0,1-5.84,1.88,10.24,10.24,0,0,1-5.56-1.34l.8-2.86a9.43,9.43,0,0,0,5,1.36,4.7,4.7,0,0,0,3-.87A2.85,2.85,0,0,0,138.63,45a3,3,0,0,0-.89-2.2,8.49,8.49,0,0,0-3-1.66q-5.62-2.1-5.63-6.14a5.47,5.47,0,0,1,2-4.34A7.85,7.85,0,0,1,136.37,29a10.55,10.55,0,0,1,4.87,1l-.86,2.8a8.54,8.54,0,0,0-4.1-1,4.16,4.16,0,0,0-2.83.89,2.68,2.68,0,0,0,.12,4,11.18,11.18,0,0,0,3.12,1.66A10.52,10.52,0,0,1,140.76,41a5.43,5.43,0,0,1,1.31,3.72"/><path class="cls-2" d="M153.42,37.88h-3.79v7.5c0,1.91.67,2.86,2,2.86a6.43,6.43,0,0,0,1.52-.15l.1,2.6a7.61,7.61,0,0,1-2.67.39,4.13,4.13,0,0,1-3.18-1.24c-.77-.83-1.15-2.22-1.15-4.17V37.88H144V35.3h2.26V32.47l3.37-1V35.3h3.79"/><path class="cls-2" d="M166.94,43a6.91,6.91,0,0,0-.93-3.66,3.38,3.38,0,0,0-3.08-1.86,3.44,3.44,0,0,0-3.15,1.86,7,7,0,0,0-.92,3.73,6.89,6.89,0,0,0,.92,3.66,3.5,3.5,0,0,0,6.2,0,6.91,6.91,0,0,0,1-3.7m3.56-.11a8.49,8.49,0,0,1-2,5.86,7.25,7.25,0,0,1-5.66,2.35,6.93,6.93,0,0,1-5.42-2.26,8.19,8.19,0,0,1-2-5.69,8.37,8.37,0,0,1,2.08-5.88,7.18,7.18,0,0,1,5.61-2.3,7.1,7.1,0,0,1,5.48,2.26,8.18,8.18,0,0,1,2,5.66"/><path class="cls-2" d="M181.66,38.32a6.21,6.21,0,0,0-1.08-.09,3.26,3.26,0,0,0-2.8,1.37,5.14,5.14,0,0,0-.86,3v8.11h-3.43l0-10.59c0-1.79,0-3.41-.13-4.87h3l.12,3h.09a5.26,5.26,0,0,1,1.72-2.45A4.16,4.16,0,0,1,180.8,35a7.1,7.1,0,0,1,.86.06"/><path class="cls-2" d="M193.74,41.41a4.56,4.56,0,0,0-.66-2.64,3,3,0,0,0-2.74-1.44,3.25,3.25,0,0,0-2.73,1.41,5,5,0,0,0-1,2.67Zm3.28.89a8.6,8.6,0,0,1-.12,1.56H186.6a4.45,4.45,0,0,0,1.49,3.5,5.1,5.1,0,0,0,3.37,1.08,11.41,11.41,0,0,0,4.17-.74l.54,2.39a13.06,13.06,0,0,1-5.19,1,7.51,7.51,0,0,1-5.65-2.12,7.84,7.84,0,0,1-2.05-5.68,8.88,8.88,0,0,1,1.91-5.82A6.61,6.61,0,0,1,190.6,35a5.78,5.78,0,0,1,5.06,2.48A8.34,8.34,0,0,1,197,42.3"/><path class="cls-3" d="M209.44,2a6.18,6.18,0,0,1,6.17,6.16V56.84A6.18,6.18,0,0,1,209.44,63H8.16A6.18,6.18,0,0,1,2,56.84V8.16A6.18,6.18,0,0,1,8.16,2H209.44m0-2H8.16A8.17,8.17,0,0,0,0,8.16V56.84A8.17,8.17,0,0,0,8.16,65H209.44a8.17,8.17,0,0,0,8.17-8.16V8.16A8.17,8.17,0,0,0,209.44,0Z"/></svg>