<svg id="Layer_1" data-name="Layer 1" xmlns="http://www.w3.org/2000/svg" viewBox="0 0 499.54 499.54"><defs><style>.cls-1{fill:#0071c5;}</style></defs><path class="cls-1" d="M425.55,176V76.7H326.22l-73-73-73,73H77V180L6.74,250.18,77,320.41v99.33h99.33l73,73,73-73H425.56V316.49l70.23-70.23ZM412.27,311.29v95.37H316.9l-13.07,13.08-54.37,54.37L182,406.67H90.26V314.91L77,301.63,25.38,250,77,198.43l13.29-13.28V89.78h95.37l13-13.08,54.37-54.37,67.44,67.44h91.76v91.76l13.28,13.28,51.6,51.6L425.56,298Z"/><path class="cls-1" d="M311.12,152.93a1.18,1.18,0,0,1,0,.2h0A1.17,1.17,0,0,0,311.12,152.93Z"/><path class="cls-1" d="M238.83,385.6H136.77a16.47,16.47,0,0,1-16.44-16.44v-113a16.46,16.46,0,0,1,16.44-16.43H238.83a16.45,16.45,0,0,1,16.43,16.43v113A16.46,16.46,0,0,1,238.83,385.6ZM136.77,247.73a8.45,8.45,0,0,0-8.44,8.43v113a8.45,8.45,0,0,0,8.44,8.44H238.83a8.45,8.45,0,0,0,8.43-8.44v-113a8.44,8.44,0,0,0-8.43-8.43Z"/><path class="cls-1" d="M228.82,297.06h-82a7.39,7.39,0,0,1-7.38-7.38v-23.1a7.39,7.39,0,0,1,7.38-7.38h82a7.39,7.39,0,0,1,7.38,7.38v23.1A7.39,7.39,0,0,1,228.82,297.06Zm-81.42-8h80.8V267.2H147.4Z"/><rect class="cls-1" x="150.33" y="307.86" width="17.93" height="8.93" rx="4.47"/><rect class="cls-1" x="150.33" y="327.46" width="17.93" height="8.93" rx="4.47"/><rect class="cls-1" x="150.33" y="347.06" width="17.93" height="8.93" rx="4.47"/><rect class="cls-1" x="179.33" y="307.86" width="17.93" height="8.93" rx="4.47"/><rect class="cls-1" x="179.33" y="327.46" width="17.93" height="8.93" rx="4.47"/><rect class="cls-1" x="179.33" y="347.06" width="17.93" height="8.93" rx="4.47"/><rect class="cls-1" x="208.53" y="307.86" width="17.93" height="8.93" rx="4.47"/><rect class="cls-1" x="208.53" y="327.46" width="17.93" height="8.93" rx="4.47"/><rect class="cls-1" x="208.53" y="347.06" width="17.93" height="8.93" rx="4.47"/><path class="cls-1" d="M342.4,310.5a47.9,47.9,0,1,1,47.9-47.9A48,48,0,0,1,342.4,310.5Zm0-86.8a38.9,38.9,0,1,0,38.9,38.9A38.94,38.94,0,0,0,342.4,223.7Z"/><path class="cls-1" d="M327.83,261.49A11.13,11.13,0,1,1,339,250.36,11.14,11.14,0,0,1,327.83,261.49Zm0-17.26a6.13,6.13,0,1,0,6.13,6.13A6.14,6.14,0,0,0,327.83,244.23Z"/><path class="cls-1" d="M357.19,286.16A11.13,11.13,0,1,1,368.32,275,11.14,11.14,0,0,1,357.19,286.16Zm0-17.26a6.13,6.13,0,1,0,6.13,6.13A6.14,6.14,0,0,0,357.19,268.9Z"/><rect class="cls-1" x="308.44" y="260.13" width="67.32" height="7" transform="translate(-75.35 374.41) rotate(-52.48)"/><path class="cls-1" d="M352.7,154.59a4.76,4.76,0,0,0-.28-.71s0,0,0,0a3.7,3.7,0,0,0-.43-.63h0l-.27-.29-.27-.26L314,115.3a3.65,3.65,0,0,0-.3-.27,3.43,3.43,0,0,0-.33-.24,2.33,2.33,0,0,0-.34-.2l-.3-.14a2.35,2.35,0,0,0-.37-.14l-.31-.08a3.71,3.71,0,0,0-.88-.1H163.53a4,4,0,0,0-4,4V220.26a4,4,0,0,0,8,0V122.13H307.17v33.6a4,4,0,0,0,4,4h33.7v37.33a4,4,0,1,0,8,0V155.73A4.09,4.09,0,0,0,352.7,154.59Zm-37.53-2.86v-24l24,24Z"/><path class="cls-1" d="M282.4,159.73H191.6a4,4,0,0,1,0-8h90.8a4,4,0,0,1,0,8Z"/><path class="cls-1" d="M313.6,189.53h-122a4,4,0,0,1,0-8h122a4,4,0,0,1,0,8Z"/><path class="cls-1" d="M289.4,218.7H191.6a4,4,0,1,1,0-8h97.8a4,4,0,0,1,0,8Z"/><path class="cls-1" d="M319.67,326.13H280.6a4,4,0,0,1,0-8h39.07a4,4,0,0,1,0,8Z"/><path class="cls-1" d="M319.67,355.53H280.6a4,4,0,0,1,0-8h39.07a4,4,0,1,1,0,8Z"/><path class="cls-1" d="M350,384.83H268.2a4,4,0,0,1,0-8H346v-44.9a4,4,0,0,1,8,0v48.9A4,4,0,0,1,350,384.83Z"/></svg>