<svg id="Layer_1" data-name="Layer 1" xmlns="http://www.w3.org/2000/svg" viewBox="0 0 499.54 499.54"><defs><style>.cls-1{fill:#0071c5;}</style></defs><path class="cls-1" d="M425.55,176V76.7H326.22l-73-73-73,73H77V180L6.74,250.18,77,320.41v99.33h99.33l73,73,73-73H425.56V316.49l70.23-70.23ZM412.27,311.29v95.37H316.9l-13.07,13.08-54.37,54.37L182,406.67H90.26V314.91L77,301.63,25.38,250,77,198.43l13.29-13.28V89.78h95.37l13-13.08,54.37-54.37,67.44,67.44h91.76v91.76l13.28,13.28,51.6,51.6L425.56,298Z"/><path class="cls-1" d="M311.12,152.93a1.18,1.18,0,0,1,0,.2h0A1.17,1.17,0,0,0,311.12,152.93Z"/><path class="cls-1" d="M363.83,342.81V307.32c3.71-1.31,8-4.31,8-9.92,0-6.79-6.15-10.79-9.79-12.09l-.57-.21H340a17.79,17.79,0,0,0,.48-4.47c-.07-5.16-4-7.9-7.28-9.08v-9.81h11.32L338.26,223a12.56,12.56,0,0,0-5.33-21.63V185.75l-11.28-4.4L353,168.47l-101.74-41.8-100.54,42L192.55,186v46.92h-20l-.54,0c-.24,0-24.35,4.74-24.35,29.55,0,13.16,6,20.55,11.67,24.59-9.3,3.95-27.88,14.86-27.88,39.14,0,32.55,34.15,37.56,34.5,37.6l.23,0H359.31a15.78,15.78,0,0,0,1.72.09,11.88,11.88,0,0,0,7.73-2.5,9.1,9.1,0,0,0,3.07-7.23C371.83,347.79,367.53,344.33,363.83,342.81Zm-40.9-87.07L327.77,226a11,11,0,0,0,2.16.2,12.1,12.1,0,0,0,2.71-.3h0l4.83,29.89Zm-17.33-21.3a35.37,35.37,0,0,1-4.89,4.43,62.67,62.67,0,0,1-19.56,9.8,97.88,97.88,0,0,1-29.35,4.13,99,99,0,0,1-29.61-4.13,60.39,60.39,0,0,1-19.4-9.8,33.21,33.21,0,0,1-4.24-3.89V188.43l52.71,21.83,54.34-22.32Zm4.1,4.43h9.89l-1.6,9.8H296.74A51.1,51.1,0,0,0,309.7,238.87ZM251.8,258.8a105.36,105.36,0,0,0,30.46-4.13H317l-1.15,7.07H327.2v9.13H174.64a7.49,7.49,0,0,1-6.44-7.6,8.64,8.64,0,0,1,5.67-8.6h47.25A106.41,106.41,0,0,0,251.8,258.8Zm84.72-45.23a6.59,6.59,0,1,1-6.59-6.58A6.59,6.59,0,0,1,336.52,213.57Zm-9.59-23.72v11.51a12.57,12.57,0,0,0-4.83,22l-1.54,9.46h-9v-47.4l2-.82ZM171.55,168.59l79.73-33.26,80.66,33.14-21.09,8.66-56.36-22-2.18,5.59,50.5,19.71-51.54,21.17Zm-17.84,93.88c0-18.79,16.87-23.1,19.19-23.6H194a47.5,47.5,0,0,0,12.71,9.8H173l-.38.1a14.73,14.73,0,0,0-10.42,14.5c0,9.52,7.73,13,11.81,13.57l.2,0H330c.83.16,4.48,1,4.52,3.84a10,10,0,0,1-.79,4.39H168.18C163.65,283.49,153.71,278.17,153.71,262.47Zm210.5,93.65c-1,.87-3.24.88-4.15.76l-.26,0H166.72c-2.83-.44-28.22-5.07-28.22-30.64,0-25.29,23.86-33.09,27.37-34.1H360.16c1.28.6,4.67,2.45,4.67,5.3,0,2.64-3.87,3.53-4.79,3.7H167l-.58,0c-7.09,1.18-20.52,7.78-20.52,24.25s13,22.6,19.86,23.48l.22,0H360c1.22.28,4.84,1.43,4.84,5.3C364.83,355.57,364.38,356,364.21,356.12Zm-7.38-33.88V341.9H166.46c-2.11-.33-13.56-2.8-13.56-16.5s12.46-16.88,14.43-17.3h189.5v7.14h-65.3v7Z"/></svg>