<svg id="Layer_1" data-name="Layer 1" xmlns="http://www.w3.org/2000/svg" viewBox="0 0 499.54 499.54"><defs><style>.cls-1{fill:#0071c5;}</style></defs><path class="cls-1" d="M425.55,176V76.7H326.22l-73-73-73,73H77V180L6.74,250.18,77,320.41v99.33h99.33l73,73,73-73H425.56V316.49l70.23-70.23ZM412.27,311.29v95.37H316.9l-13.07,13.08-54.37,54.37L182,406.67H90.26V314.91L77,301.63,25.38,250,77,198.43l13.29-13.28V89.78h95.37l13-13.08,54.37-54.37,67.44,67.44h91.76v91.76l13.28,13.28,51.6,51.6L425.56,298Z"/><path class="cls-1" d="M311.12,152.93a1.18,1.18,0,0,1,0,.2h0A1.17,1.17,0,0,0,311.12,152.93Z"/><path class="cls-1" d="M164.29,199.79c-21.17-17.59-17.14-46.07-4.09-58.69,14.58-14.11,38.85-14.67,53.74-.9,16.63,15.37,15.55,38.24-3.11,59.88a18.36,18.36,0,0,0,2.61,2.39,59.91,59.91,0,0,1,21.35,22c.73,1.29,3.2,2.17,4.9,2.23,6.75.25,13.51.18,20.26,0,1.53,0,3.92-.42,4.43-1.41,5.34-10.41,13.35-18.07,23.38-23.84.37-.21.57-.74,2.45-2.78-1.68-.89-3.7-1.44-5-2.72-15.69-15.41-15.1-41.72,1.15-56.26,16.46-14.72,43.32-12.57,56.26,5.32,8.92,12.36,11.53,26.1,3.24,40.21-3,5.13-6.38,10-9.91,15.58,1.11.79,2.68,2,4.35,3.08,15.36,9.93,24.35,24,24.62,42.26.55,35.94.21,71.89.16,107.84,0,5.16-1.75,6.77-7,6.77q-108.33,0-216.67,0c-5.2,0-6.92-1.69-6.93-6.81,0-35.79-.49-71.58.2-107.36.36-18.46,9.24-33.07,25.21-43,1.21-.76,2.43-1.5,3.58-2.34C163.81,201.06,163.92,200.51,164.29,199.79Zm190.2,95c0-13.2.08-26.39-.05-39.58-.05-4.91-.06-9.93-1-14.71-3.48-16.9-18.11-30.66-34.76-33.21-17-2.6-34.06,5.87-43.15,21.19-2,3.32-2,5.57.69,8.76A34.81,34.81,0,0,1,274,285.17c-3.36,3.21-2.35,4.51.71,6.75,9.72,7.12,15.58,16.74,16.68,28.77a203.65,203.65,0,0,1,.64,23.31c-.11,4.73,1.7,6,6.14,6,16.37-.16,32.75-.05,49.12-.07,6.7,0,7.16-.45,7.17-7.41Q354.53,318.68,354.49,294.83Zm-125.61-6c-1.1-1.32-1.64-2.08-2.29-2.74-14.6-14.8-15.46-34.22-2-50.07,2-2.39,1.47-4.15.3-6.39-8.58-16.4-28.43-25.93-45.74-21.91-19.46,4.5-33.63,21.11-33.76,40.34-.21,32.09,0,64.19-.12,96.29,0,4.14,1.56,5.62,5.64,5.59q25.74-.19,51.49,0c4.19,0,5.62-1.72,5.52-5.74-.18-6.67-.21-13.35,0-20,.44-13,5.9-23.51,16.06-31.6C225.48,291.45,227,290.33,228.88,288.87Zm21.24,61.06c8.43,0,16.87-.16,25.29.06,4.42.12,6-1.67,5.8-5.94-.24-6,0-12.09-.2-18.12-.67-17.87-14.57-31.24-32-31-16.57.25-30.05,14.44-30.2,31.83-.06,5.89.15,11.78-.08,17.65-.16,4.22,1.63,5.63,5.67,5.55C232.94,349.81,241.53,349.93,250.12,349.93ZM187.8,141.15c-14.79-.07-27.74,12.48-27.81,27-.07,14.79,13,28,27.6,28,14.41,0,27.53-13.07,27.65-27.53S202.47,141.23,187.8,141.15Zm124.39,0c-14.89,0-27.46,12.42-27.51,27.2s13.16,28,27.75,27.75,27.28-13.15,27.26-27.75S327.07,141.17,312.19,141.15ZM273.74,259.83c0-12.45-11.43-23.71-24-23.7S226.08,247.45,226,260.08s11.44,24.09,24.21,23.91C262.78,283.82,273.78,272.53,273.74,259.83Z"/></svg>