<?xml version="1.0" encoding="utf-8"?>
<!-- Generator: Adobe Illustrator 24.3.0, SVG Export Plug-In . SVG Version: 6.00 Build 0)  -->
<svg version="1.1" id="Layer_1" xmlns="http://www.w3.org/2000/svg" xmlns:xlink="http://www.w3.org/1999/xlink" x="0px" y="0px"
	 viewBox="0 0 499.5 499.5" style="enable-background:new 0 0 499.5 499.5;" xml:space="preserve">
<style type="text/css">
	.st0{fill:#0071C5;}
</style>
<g>
	<path class="st0" d="M425.5,176V76.7h-99.3l-73-73l-73,73H77V180L6.7,250.2L77,320.4v99.3h99.3l73,73l73-73h103.2V316.5l70.2-70.2
		L425.5,176z M412.3,311.3v95.4h-95.4l-13.1,13.1l-54.4,54.4L182,406.7H90.3v-91.8L77,301.6L25.4,250L77,198.4l13.3-13.3V89.8h95.4
		l13-13.1L253,22.3l67.4,67.4h91.8v91.8l13.3,13.3l51.6,51.6L425.6,298L412.3,311.3z"/>
	<g>
		<path class="st0" d="M351.8,177.5h-31.4v-19.7c0-15.2-12.3-27.4-27.5-27.5h-76.3c-15.2,0-27.4,12.3-27.5,27.5v19.7h-31.4
			c-16.5,0-29.9,13.4-29.9,29.9v125.9c0,16.5,13.4,29.9,29.9,29.9h194.1c16.5,0,29.9-13.4,29.9-29.9V207.4
			C381.7,190.9,368.3,177.5,351.8,177.5z M216.1,138H293c4.8,0,9.2,2,12.3,5.1c3.2,3.1,5.1,7.5,5.1,12.3H198.7
			C198.7,145.8,206.5,138,216.1,138z M310.4,163.9v13.6H199.1v-13.6H310.4z M371.7,333.3c0,11-8.9,19.9-19.9,19.9H157.7
			c-11,0-19.9-8.9-19.9-19.9v-82.6c10.6,15.5,28.1,24.7,46.8,24.7H231v6c-0.3,13.1,10.2,24,23.3,24.2c13.1,0.3,24-10.2,24.2-23.3
			c0-0.3,0-0.6,0-1v-6h46.4c18.7,0,36.2-9.2,46.8-24.7V333.3z M268.5,275.3v6c0.2,7.6-5.8,13.9-13.4,14.1
			c-7.6,0.2-13.9-5.8-14.1-13.4c0-0.2,0-0.5,0-0.7v-6H268.5z M241,265.3v-13.8h27.5v13.9L241,265.3z M324.9,265.4h-46.4v-14.5
			c0-5.2-4.2-9.4-9.4-9.4h-28.8c-5.2,0-9.4,4.2-9.4,9.4v14.5h-46.4c-25.8,0-46.8-21-46.8-46.8v-11.1c0-11,8.9-19.9,19.9-19.9h194.1
			c11,0,19.9,8.9,19.9,19.9l0,11.1C371.7,244.3,350.8,265.3,324.9,265.4z"/>
	</g>
</g>
</svg>
