<svg id="Layer_1" data-name="Layer 1" xmlns="http://www.w3.org/2000/svg" viewBox="0 0 217.61 65"><defs><style>.cls-1{fill:#fff;}.cls-2{fill:#4587e5;}.cls-3{fill:#93b6f5;}</style></defs><rect class="cls-1" width="217.61" height="65" rx="8.16"/><path class="cls-2" d="M174,48.83h3V28.72h-3Zm27-12.86-3.44,8.72h-.1L193.94,36h-3.23l5.35,12.18L193,54.93h3.13l8.25-19ZM184,46.54c-1,0-2.35-.48-2.35-1.7,0-1.55,1.7-2.15,3.18-2.15a5.41,5.41,0,0,1,2.74.67A3.63,3.63,0,0,1,184,46.54m.36-11A5.63,5.63,0,0,0,179,38.61l2.66,1.11a2.85,2.85,0,0,1,2.74-1.48c1.56,0,3.13.93,3.16,2.59V41a6.63,6.63,0,0,0-3.13-.78c-2.87,0-5.79,1.58-5.79,4.53,0,2.69,2.35,4.42,5,4.42a4.22,4.22,0,0,0,3.83-2h.1V48.8h2.9V41.09c0-3.57-2.67-5.56-6.11-5.56m-18.54,2.89h-4.27v-6.9h4.27a3.45,3.45,0,1,1,0,6.9m-.08-9.7h-7.19V48.83h3V41.21h4.19a6.25,6.25,0,1,0,0-12.49M126.56,46.55a4.16,4.16,0,0,1,0-8.29c2,0,3.65,1.76,3.65,4.17a3.83,3.83,0,0,1-3.65,4.12M130,37.09h-.1a4.76,4.76,0,0,0-3.6-1.53,6.85,6.85,0,0,0,0,13.69,4.67,4.67,0,0,0,3.6-1.56h.1v1c0,2.62-1.4,4-3.65,4a3.8,3.8,0,0,1-3.45-2.43l-2.62,1.09a6.52,6.52,0,0,0,6.07,4c3.52,0,6.5-2.07,6.5-7.12V36H130Zm4.92,11.74h3V28.72h-3Zm7.44-6.63a3.75,3.75,0,0,1,3.58-4,2.62,2.62,0,0,1,2.53,1.45Zm9.33-2.28a6.37,6.37,0,0,0-5.86-4.36,6.51,6.51,0,0,0-6.45,6.84,6.7,6.7,0,0,0,6.79,6.85,6.78,6.78,0,0,0,5.7-3l-2.33-1.55a3.91,3.91,0,0,1-3.37,1.89,3.49,3.49,0,0,1-3.32-2.07L152,40.7ZM78.81,37.66v2.9h7a6.07,6.07,0,0,1-1.58,3.66,7.11,7.11,0,0,1-5.37,2.12,7.72,7.72,0,0,1,0-15.44A7.43,7.43,0,0,1,84.05,33l2-2A10.16,10.16,0,0,0,78.81,28a10.63,10.63,0,1,0,0,21.25,9.74,9.74,0,0,0,7.42-3,9.64,9.64,0,0,0,2.51-6.79,9,9,0,0,0-.16-1.82Zm17.82,8.89a4.16,4.16,0,1,1,3.86-4.15,4,4,0,0,1-3.86,4.15m0-11a6.85,6.85,0,1,0,6.87,6.84,6.74,6.74,0,0,0-6.87-6.84m15,11a4.16,4.16,0,1,1,3.85-4.15,4,4,0,0,1-3.85,4.15m0-11a6.85,6.85,0,1,0,6.86,6.84,6.74,6.74,0,0,0-6.86-6.84"/><path class="cls-2" d="M75.76,13.86A3.39,3.39,0,0,0,73.48,13,3.55,3.55,0,0,0,70,16.61a3.54,3.54,0,0,0,3.5,3.63,2.75,2.75,0,0,0,3-2.55h-2.7V16.58H78c0,3.32-1.77,4.88-4.48,4.88a4.86,4.86,0,0,1,0-9.71A4.71,4.71,0,0,1,76.68,13"/><path class="cls-2" d="M85.31,11.86v1.2H81v3h3.78v1.2H81v2.85h4.47v1.2H79.71V11.86"/><path class="cls-2" d="M93.59,11.86v1.21H90.72v8.26H89.43V13.07H86.56V11.86"/><path class="cls-2" d="M98.44,21.33h1.28V11.86H98.44Z"/><path class="cls-2" d="M108.43,11.86v1.21h-2.87v8.26h-1.3V13.07h-2.87V11.86"/><path class="cls-2" d="M117.44,20.23A3.53,3.53,0,0,0,121,16.61a3.51,3.51,0,1,0-7,0,3.52,3.52,0,0,0,3.5,3.62m0-8.48a4.86,4.86,0,1,1-4.78,4.86,4.8,4.8,0,0,1,4.78-4.86"/><path class="cls-2" d="M129.8,21.33l-4.31-7.13v7.13h-1.28V11.86h1.26l4.27,7.08V11.86H131v9.47"/><path class="cls-2" d="M20.92,52.77a3.07,3.07,0,0,1-1.33-2.66c0-1.7,0-3.39,0-5.09q0-15,0-30a3.24,3.24,0,0,1,1.16-2.66L41,32.66Q31,42.65,20.92,52.77Z"/><path class="cls-2" d="M21.51,11.88a3.26,3.26,0,0,1,3,.21L37,19.26l10.43,6,.64.38L41.65,32Z"/><path class="cls-2" d="M21.66,53.18l20-19.93,6.19,6.22-3.46,2L24.65,52.86A3.34,3.34,0,0,1,21.66,53.18Z"/><path class="cls-2" d="M48.57,39l-6.46-6.48,4.09-4.05c.72-.71,1.44-1.41,2.13-2.14a.53.53,0,0,1,.78-.11c1.94,1.15,3.91,2.25,5.86,3.4a3.23,3.23,0,0,1,0,5.69l-.21.12Z"/><path class="cls-3" d="M209.44,2a6.18,6.18,0,0,1,6.17,6.16V56.84A6.18,6.18,0,0,1,209.44,63H8.16A6.18,6.18,0,0,1,2,56.84V8.16A6.18,6.18,0,0,1,8.16,2H209.44m0-2H8.16A8.17,8.17,0,0,0,0,8.16V56.84A8.17,8.17,0,0,0,8.16,65H209.44a8.17,8.17,0,0,0,8.17-8.16V8.16A8.17,8.17,0,0,0,209.44,0Z"/></svg>