<svg id="Layer_1" data-name="Layer 1" xmlns="http://www.w3.org/2000/svg" viewBox="0 0 499.54 499.54"><defs><style>.cls-1{fill:#0071c5;}</style></defs><path class="cls-1" d="M425.55,176V76.7H326.22l-73-73-73,73H77V180L6.74,250.18,77,320.41v99.33h99.33l73,73,73-73H425.56V316.49l70.23-70.23ZM412.27,311.29v95.37H316.9l-13.07,13.08-54.37,54.37L182,406.67H90.26V314.91L77,301.63,25.38,250,77,198.43l13.29-13.28V89.78h95.37l13-13.08,54.37-54.37,67.44,67.44h91.76v91.76l13.28,13.28,51.6,51.6L425.56,298Z"/><path class="cls-1" d="M311.12,152.93a1.18,1.18,0,0,1,0,.2h0A1.17,1.17,0,0,0,311.12,152.93Z"/><path class="cls-1" d="M322.73,341.67v-16.4H305.59L299.73,217v-.25l-4.12-76.19-18.7-5.46-.42-30.36-25.19-21-26.79,21.5V135l-19.1,5.57-10,184.7H175.27v16.4H160.2v48.8H337.8v-48.8Zm-22.15-16.4h-5.21V257.94h-5v67.33H286V281.14h-5v44.13H277.9V300.4h-5v24.87h-4.2v-7.73h-5v7.73h-3.94C273,300.63,288.18,254.32,295.48,231Zm-9.78-180.9,3.9,72h0v0c-2.52,8.39-21.07,66.09-36.3,99.22,9.22-46.09,19.26-117.74,19.35-118.51l0-.16L277,140.34Zm-61.3-36.7,21.74-17.44,20.27,16.89,1.25,89.62c-.46,3.89-7.1,62.85-16.36,107.53l1.2-187.8H243.67L244,306.34c-5-25-13.14-77.83-14.54-108.46Zm-19.3,36.7,14.3-4.17v57.85c1.9,41.73,11.32,88.08,16.9,112.54v3.91c-15.89-34.1-33.48-92.77-35.09-98.2Zm31,180.9H237.5V318C238.72,320.55,239.94,323,241.15,325.27Zm-35.63-94.38c6.49,20.81,19.53,60.72,31.78,86.65h-4.8v7.73h-4.2V300.4h-5v24.87h-3.13V281.14h-5v44.13h-4.34V257.94h-5v67.33h-5.41Zm-26.25,98.38H318.73v12.4H179.27Zm50.53,57.2H164.2v-40.8h65.6Zm34.4,0H233.8v-40.8h30.4Zm69.6,0H268.2v-40.8h65.6Z"/><path class="cls-1" d="M299.8,216.78l-.07.19v-.21Z"/></svg>