<svg id="Layer_1" data-name="Layer 1" xmlns="http://www.w3.org/2000/svg" viewBox="0 0 499.54 499.54"><defs><style>.cls-1{fill:#0071c5;}</style></defs><path class="cls-1" d="M425.55,176V76.7H326.22l-73-73-73,73H77V180L6.74,250.18,77,320.41v99.33h99.33l73,73,73-73H425.56V316.49l70.23-70.23ZM412.27,311.29v95.37H316.9l-13.07,13.08-54.37,54.37L182,406.67H90.26V314.91L77,301.63,25.38,250,77,198.43l13.29-13.28V89.78h95.37l13-13.08,54.37-54.37,67.44,67.44h91.76v91.76l13.28,13.28,51.6,51.6L425.56,298Z"/><path class="cls-1" d="M194.75,286.44a73.12,73.12,0,0,1-113.27,0Z"/><path class="cls-1" d="M176.87,291.85a1.5,1.5,0,0,1-1.39-.94L137.72,198,100,288.32a1.5,1.5,0,0,1-2.76-1.16l39.13-93.65a1.49,1.49,0,0,1,1.38-.92h0a1.5,1.5,0,0,1,1.38.93l39.13,96.27a1.5,1.5,0,0,1-.82,1.95A1.65,1.65,0,0,1,176.87,291.85Z"/><rect class="cls-1" x="135.98" y="195.13" width="3" height="93.13"/><path class="cls-1" d="M249.06,188.31v40.37c3.27,2.19,5.56,7,5.56,10.81a21,21,0,0,1-2.51,8.86c3.78,6.66,7.2,20.19,7.2,44.09,0,25-3.73,39.86-7.71,47v5.21h42.92a1.3,1.3,0,0,1,1.3,1.3v9.36h20.41a1.31,1.31,0,0,1,1.31,1.31v6.26H339a5.38,5.38,0,0,1,5.38,5.38h0v4H146.09v-4a5.38,5.38,0,0,1,5.38-5.38H173v-6.26a1.31,1.31,0,0,1,1.31-1.31h20.41V346a1.3,1.3,0,0,1,1.3-1.3H238.9v-5.21c-4-7.14-7.71-22-7.71-47,0-23.9,3.42-37.43,7.2-44.09a21,21,0,0,1-2.51-8.86c0-3.78,2.29-8.62,5.56-10.81V188.31c-1.71-2.28-5-4.5-11.48-4.78-13.69-.59-26.61-2-49.5,6.65s-50.87,1-51.26-7.63a3.78,3.78,0,0,1,2.53-4.07,9.15,9.15,0,1,1,14.83,2c1.73.94,7.05,2.77,19.85.33,16.43-3.13,23.47-8,23.47-8s11.94-9.39,26.81-5.09a83.08,83.08,0,0,0,17.49,3.09c-3.58-3.7-6.48-9.45-6.48-17.76,0-14.71,9.09-28.54,14.81-32V110.8c-2.56-1.41-4.16-5-4.77-8a7,7,0,0,1,7-7,4.18,4.18,0,0,0,1,0,7,7,0,0,1,7,7c-.61,3-2.21,6.6-4.77,8V121c5.72,3.49,14.81,17.32,14.81,32,0,8.31-2.9,14.06-6.48,17.76a83.08,83.08,0,0,0,17.49-3.09c14.87-4.3,26.81,5.09,26.81,5.09s7,4.89,23.47,8c12.8,2.44,18.12.61,19.85-.33a9.13,9.13,0,1,1,14.8-2,3.78,3.78,0,0,1,2.53,4.07c-.39,8.61-28.37,16.24-51.26,7.63s-35.81-7.24-49.5-6.65C254.1,183.81,250.77,186,249.06,188.31Z"/><path class="cls-1" d="M295.75,286.44a73.12,73.12,0,0,0,113.27,0Z"/><path class="cls-1" d="M313.62,291.85a1.55,1.55,0,0,1-.56-.11,1.5,1.5,0,0,1-.83-1.95l39.13-96.27a1.49,1.49,0,0,1,1.38-.93,1.47,1.47,0,0,1,1.39.92l39.13,93.65a1.5,1.5,0,0,1-2.76,1.16L352.77,198,315,290.91A1.5,1.5,0,0,1,313.62,291.85Z"/><rect class="cls-1" x="351.51" y="195.13" width="3" height="93.13"/></svg>