<svg id="Layer_1" data-name="Layer 1" xmlns="http://www.w3.org/2000/svg" viewBox="0 0 499.54 499.54"><defs><style>.cls-1{fill:#0071c5;}</style></defs><path class="cls-1" d="M425.55,176V76.7H326.22l-73-73-73,73H77V180L6.74,250.18,77,320.41v99.33h99.33l73,73,73-73H425.56V316.49l70.23-70.23ZM412.27,311.29v95.37H316.9l-13.07,13.08-54.37,54.37L182,406.67H90.26V314.91L77,301.63,25.38,250,77,198.43l13.29-13.28V89.78h95.37l13-13.08,54.37-54.37,67.44,67.44h91.76v91.76l13.28,13.28,51.6,51.6L425.56,298Z"/><path class="cls-1" d="M311.12,152.93a1.18,1.18,0,0,1,0,.2h0A1.17,1.17,0,0,0,311.12,152.93Z"/><path class="cls-1" d="M364.2,140.63H141.53a18.45,18.45,0,0,0-18.43,18.43V318.4a18.45,18.45,0,0,0,18.43,18.43H263.37l6.59-15H141.53a3.44,3.44,0,0,1-3.43-3.43V159.06a3.44,3.44,0,0,1,3.43-3.43H364.2a3.44,3.44,0,0,1,3.43,3.43V229.5l15,10.68V159.06A18.45,18.45,0,0,0,364.2,140.63Z"/><rect class="cls-1" x="163" y="190.03" width="137.33" height="13"/><rect class="cls-1" x="163" y="222.83" width="89.32" height="13"/><rect class="cls-1" x="163" y="280.16" width="80.27" height="13"/><path class="cls-1" d="M365,322.15a50.7,50.7,0,1,0-68.05-.1l-18.79,23,6.92,27.9,32.32-39.61a50.85,50.85,0,0,0,27.11,0l33.43,41,9.93-24.22ZM296.3,284.53a34.7,34.7,0,1,1,34.7,34.7A34.74,34.74,0,0,1,296.3,284.53Z"/></svg>