<svg id="Layer_1" data-name="Layer 1" xmlns="http://www.w3.org/2000/svg" viewBox="0 0 499.54 499.54"><defs><style>.cls-1{fill:#0071c5;}</style></defs><path class="cls-1" d="M167.76,221.18a44.4,44.4,0,0,1-68.74,0Z"/><path class="cls-1" d="M156.91,224.46a.89.89,0,0,1-.84-.57l-22.92-56.37-22.89,54.8a.92.92,0,0,1-1.19.49.9.9,0,0,1-.49-1.19l23.75-56.84a.9.9,0,0,1,.84-.56h0a.91.91,0,0,1,.84.57l23.75,58.42a.91.91,0,0,1-.5,1.18A.87.87,0,0,1,156.91,224.46Z"/><rect class="cls-1" x="132.1" y="165.76" width="1.82" height="56.52"/><path class="cls-1" d="M200.72,161.63v24.5a8.57,8.57,0,0,1,3.38,6.56,12.79,12.79,0,0,1-1.53,5.37c2.3,4,4.37,12.26,4.37,26.76,0,15.17-2.26,24.19-4.68,28.52v3.16h26.05a.79.79,0,0,1,.79.79V263h12.39a.79.79,0,0,1,.79.8v3.8h13a3.26,3.26,0,0,1,3.26,3.26h0v2.43H138.23v-2.43a3.26,3.26,0,0,1,3.27-3.26h13.06v-3.8a.8.8,0,0,1,.8-.8h12.38v-5.65a.8.8,0,0,1,.79-.79h26v-3.16c-2.43-4.33-4.68-13.35-4.68-28.52,0-14.5,2.07-22.72,4.37-26.76a12.79,12.79,0,0,1-1.53-5.37,8.6,8.6,0,0,1,3.38-6.56V161.63c-1-1.39-3-2.74-7-2.91-8.31-.35-16.15-1.21-30,4s-30.87.61-31.11-4.63a2.3,2.3,0,0,1,1.54-2.47,5.42,5.42,0,0,1-.61-2.55,5.54,5.54,0,1,1,9.61,3.75c1,.57,4.28,1.68,12,.2,10-1.9,14.25-4.85,14.25-4.85s7.24-5.7,16.27-3.09A50.32,50.32,0,0,0,191.69,151c-2.17-2.24-3.93-5.73-3.93-10.77,0-8.93,5.52-17.33,9-19.43v-6.2c-1.56-.86-2.53-3-2.9-4.86a4.25,4.25,0,0,1,4.25-4.25,2.08,2.08,0,0,0,.61,0,4.26,4.26,0,0,1,4.25,4.25c-.37,1.82-1.35,4-2.9,4.86v6.19c3.47,2.11,9,10.51,9,19.42,0,5-1.76,8.53-3.93,10.77a50.32,50.32,0,0,0,10.61-1.87c9-2.61,16.27,3.09,16.27,3.09s4.25,3,14.24,4.85c7.77,1.48,11,.37,12.05-.2a5.54,5.54,0,1,1,9-1.21,2.3,2.3,0,0,1,1.54,2.47c-.24,5.22-17.22,9.86-31.11,4.63s-21.73-4.39-30-4C203.78,158.89,201.76,160.22,200.72,161.63Z"/><path class="cls-1" d="M229.06,221.18a44.38,44.38,0,0,0,68.74,0Z"/><path class="cls-1" d="M239.9,224.46a.83.83,0,0,1-.34-.07.9.9,0,0,1-.5-1.18l23.75-58.42a.9.9,0,0,1,.84-.57.89.89,0,0,1,.84.56l23.75,56.84a.91.91,0,1,1-1.68.7l-22.9-54.8-22.91,56.37A.92.92,0,0,1,239.9,224.46Z"/><rect class="cls-1" x="262.9" y="165.76" width="1.82" height="56.52"/><path class="cls-1" d="M425.55,177.55V78.25H326.22l-73-73-73,73H77v103.3L6.74,251.73,77,322v99.33h99.33l73,73,73-73H425.56V318l70.23-70.23ZM412.27,312.84v95.37H316.9l-13.07,13.08-54.37,54.37L182,408.22H90.26V316.46L77,303.18,25.38,251.55,77,200,90.29,186.7V91.33h95.37l13-13.08,54.37-54.37,67.44,67.44h91.76v91.76l13.28,13.28,51.6,51.6Z"/><path class="cls-1" d="M218.81,375.17v-7h7.26c0-2.53,0-4.82,0-7.12a7.06,7.06,0,0,1,7.26-7.32q32.27-.06,64.54,0a7.06,7.06,0,0,1,7.29,6.86c.19,2.38.28,4.77.43,7.38l7.13.58c-.12,2.2-.23,4.34-.36,6.65Z"/><path class="cls-1" d="M299.31,265.27l32.83,27.67-9.79,11.67c.37.33.74.7,1.15,1l58.62,45.54c4.31,3.34,5.32,8.58,2.49,12.79a9.17,9.17,0,0,1-13.92,1.57c-7.88-7.13-15.7-14.31-23.55-21.48l-31.88-29.11c-.26-.25-.55-.47-.93-.79-3.26,3.87-6.48,7.68-9.86,11.66l-32.84-27.66Z"/><path class="cls-1" d="M338.9,289.78a19.53,19.53,0,0,1-3-1.7c-10.78-9-21.52-18.12-32.29-27.17a6.14,6.14,0,0,1-2.36-6.4,5.74,5.74,0,0,1,4.41-4.53,6.08,6.08,0,0,1,5.69,1.4q12.38,10.44,24.77,20.86c2.65,2.22,5.32,4.42,7.92,6.69a6.09,6.09,0,0,1,1.49,7.43A6.66,6.66,0,0,1,338.9,289.78Z"/><path class="cls-1" d="M265,301.37a17.56,17.56,0,0,1,2.84,1.62q16.25,13.61,32.43,27.28a6.12,6.12,0,0,1,2.32,6.09,5.82,5.82,0,0,1-4.26,4.7,6.38,6.38,0,0,1-6.18-1.54q-13.27-11.24-26.6-22.43c-2-1.67-4-3.31-5.91-5a6,6,0,0,1-1.42-7.27A6.61,6.61,0,0,1,265,301.37Z"/></svg>