<svg id="Layer_1" data-name="Layer 1" xmlns="http://www.w3.org/2000/svg" viewBox="0 0 499.54 499.54"><defs><style>.cls-1{fill:#0071c5;}</style></defs><path class="cls-1" d="M425.55,176V76.7H326.22l-73-73-73,73H77V180L6.74,250.18,77,320.41v99.33h99.33l73,73,73-73H425.56V316.49l70.23-70.23ZM412.27,311.29v95.37H316.9l-13.07,13.08-54.37,54.37L182,406.67H90.26V314.91L77,301.63,25.38,250,77,198.43l13.29-13.28V89.78h95.37l13-13.08,54.37-54.37,67.44,67.44h91.76v91.76l13.28,13.28,51.6,51.6L425.56,298Z"/><path class="cls-1" d="M311.12,152.93a1.18,1.18,0,0,1,0,.2h0A1.17,1.17,0,0,0,311.12,152.93Z"/><path class="cls-1" d="M388.2,380.13H367.64c.59-5.39-.09-17.85-14.69-31.7a25.92,25.92,0,0,0-3.28-2.67V197.4a10.08,10.08,0,0,0-10.07-10.07H274.47v-64.2a10.08,10.08,0,0,0-10.07-10.07H152.27a10.08,10.08,0,0,0-10.07,10.07v257H119.4a4,4,0,1,0,0,8H388.2a4,4,0,0,0,0-8Zm-48.6-184.8a2.07,2.07,0,0,1,2.07,2.07V342.24a21.75,21.75,0,0,0-5.95-.44c-10.31.61-19.47,8.05-24.19,12.63-4.51-4.69-14-11.39-30.55-9.06-.78.11-1.53.25-2.26.42-2.72-2.63-8-6.26-16.51-6.85a21,21,0,0,0-13.34,3.54V197.4a2.07,2.07,0,0,1,2.06-2.07ZM150.2,380.13v-257a2.07,2.07,0,0,1,2.07-2.07H264.4a2.07,2.07,0,0,1,2.07,2.07v64.2H250.93a10.08,10.08,0,0,0-10.06,10.07V338.23A33.89,33.89,0,0,0,213,325.33,25.9,25.9,0,0,0,197.38,331v-1.46a3,3,0,0,0-3-3h-1.24a3,3,0,0,0-3,3v9.28a48.1,48.1,0,0,0-6.5,14.57c-16.7,2.4-24.25,17.28-26.39,26.77Zm116.87-26.19c-5.09,8.24-3.35,20-1.91,26.19H165.63c1.8-6.13,7.2-18.39,21.56-19.07a4,4,0,0,0,3.75-3.29c.17-1,4.52-24,22.29-24.44H214c17.67,0,24.51,15.8,24.79,16.46,0,.09.08.18.12.27l2,4a5.28,5.28,0,0,0,3.43,2.7c2.3.41,4.57-3.39,4.57-3.39,1.69-2.25,6-6.88,12.78-6.41a19.57,19.57,0,0,1,9.11,2.73A17.59,17.59,0,0,0,267.07,353.94Zm92.51,26.19H273.4c-1.45-5.18-3.3-15.87.47-22,1.68-2.72,4.37-4.31,8.22-4.85,18.56-2.62,25.42,8.74,25.69,9.2a4,4,0,0,0,6.56.6c.1-.13,10.69-12.65,21.88-13.3a13.81,13.81,0,0,1,5.45.75,19.37,19.37,0,0,1,8,5.92C361.14,368.55,360,378.11,359.58,380.13Z"/><rect class="cls-1" x="162.7" y="133.35" width="7.17" height="15.88" rx="2.97"/><rect class="cls-1" x="162.7" y="160.95" width="7.17" height="15.88" rx="2.97"/><rect class="cls-1" x="162.7" y="188.55" width="7.17" height="15.88" rx="2.97"/><rect class="cls-1" x="162.7" y="216.15" width="7.17" height="15.88" rx="2.97"/><rect class="cls-1" x="162.7" y="243.75" width="7.17" height="15.88" rx="2.97"/><rect class="cls-1" x="162.7" y="271.35" width="7.17" height="15.88" rx="2.97"/><rect class="cls-1" x="162.7" y="298.95" width="7.17" height="15.88" rx="2.97"/><rect class="cls-1" x="162.7" y="326.55" width="7.17" height="15.88" rx="2.97"/><rect class="cls-1" x="190.22" y="133.35" width="7.17" height="15.88" rx="2.97"/><rect class="cls-1" x="190.22" y="160.95" width="7.17" height="15.88" rx="2.97"/><rect class="cls-1" x="190.22" y="188.55" width="7.17" height="15.88" rx="2.97"/><rect class="cls-1" x="190.22" y="216.15" width="7.17" height="15.88" rx="2.97"/><rect class="cls-1" x="190.22" y="243.75" width="7.17" height="15.88" rx="2.97"/><rect class="cls-1" x="190.22" y="271.35" width="7.17" height="15.88" rx="2.97"/><rect class="cls-1" x="190.22" y="298.95" width="7.17" height="15.88" rx="2.97"/><rect class="cls-1" x="218.19" y="133.35" width="7.17" height="15.88" rx="2.97"/><rect class="cls-1" x="218.19" y="160.95" width="7.17" height="15.88" rx="2.97"/><rect class="cls-1" x="218.19" y="188.55" width="7.17" height="15.88" rx="2.97"/><rect class="cls-1" x="218.19" y="216.15" width="7.17" height="15.88" rx="2.97"/><rect class="cls-1" x="218.19" y="243.75" width="7.17" height="15.88" rx="2.97"/><rect class="cls-1" x="218.19" y="271.35" width="7.17" height="15.88" rx="2.97"/><rect class="cls-1" x="218.19" y="298.95" width="7.17" height="15.88" rx="2.97"/><rect class="cls-1" x="263.49" y="206.65" width="7.17" height="15.88" rx="2.97"/><rect class="cls-1" x="263.49" y="234.25" width="7.17" height="15.88" rx="2.97"/><rect class="cls-1" x="263.49" y="261.85" width="7.17" height="15.88" rx="2.97"/><rect class="cls-1" x="263.49" y="289.45" width="7.17" height="15.88" rx="2.97"/><rect class="cls-1" x="263.49" y="317.05" width="7.17" height="15.88" rx="2.97"/><rect class="cls-1" x="291.69" y="206.65" width="7.17" height="15.88" rx="2.97"/><rect class="cls-1" x="291.69" y="234.25" width="7.17" height="15.88" rx="2.97"/><rect class="cls-1" x="291.69" y="261.85" width="7.17" height="15.88" rx="2.97"/><rect class="cls-1" x="291.69" y="289.45" width="7.17" height="15.88" rx="2.97"/><rect class="cls-1" x="291.69" y="317.05" width="7.17" height="15.88" rx="2.97"/><rect class="cls-1" x="318.62" y="206.65" width="7.17" height="15.88" rx="2.97"/><rect class="cls-1" x="318.62" y="234.25" width="7.17" height="15.88" rx="2.97"/><rect class="cls-1" x="318.62" y="261.85" width="7.17" height="15.88" rx="2.97"/><rect class="cls-1" x="318.62" y="289.45" width="7.17" height="15.88" rx="2.97"/><rect class="cls-1" x="318.62" y="317.05" width="7.17" height="15.88" rx="2.97"/><rect class="cls-1" x="245.29" y="133.35" width="7.17" height="15.88" rx="2.97"/><rect class="cls-1" x="245.29" y="160.95" width="7.17" height="15.88" rx="2.97"/></svg>