<svg id="Layer_1" data-name="Layer 1" xmlns="http://www.w3.org/2000/svg" viewBox="0 0 499.54 499.54"><defs><style>.cls-1{fill:#0071c5;}</style></defs><path class="cls-1" d="M425.55,176V76.7H326.22l-73-73-73,73H77V180L6.74,250.18,77,320.41v99.33h99.33l73,73,73-73H425.56V316.49l70.23-70.23ZM412.27,311.29v95.37H316.9l-13.07,13.08-54.37,54.37L182,406.67H90.26V314.91L77,301.63,25.38,250,77,198.43l13.29-13.28V89.78h95.37l13-13.08,54.37-54.37,67.44,67.44h91.76v91.76l13.28,13.28,51.6,51.6L425.56,298Z"/><path class="cls-1" d="M301.15,180.3V165.94H286.8l-10.15-10.15-10.16,10.15H252.14V180.3L242,190.44l10.14,10.15V215H266.5l10.15,10.14L286.79,215h14.36V200.59l10.14-10.15Zm-4.55,18.41V210.4H284.91L280.36,215l-3.71,3.71-8.27-8.26H256.69V198.71l-8.26-8.27,3.71-3.71,4.55-4.55V170.49h11.69l4.55-4.55,3.72-3.72,8.26,8.27H296.6v11.69l8.26,8.26-3.71,3.72Z"/><path class="cls-1" d="M240.78,266.32v4.51h-2.64V258h5a5.79,5.79,0,0,1,2.54.53,3.84,3.84,0,0,1,1.68,1.5,4.11,4.11,0,0,1,.59,2.21,3.69,3.69,0,0,1-1.29,3,5.35,5.35,0,0,1-3.56,1.08Zm0-2.14h2.35a2.32,2.32,0,0,0,1.6-.49,1.77,1.77,0,0,0,.55-1.4,2.13,2.13,0,0,0-.55-1.52,2.05,2.05,0,0,0-1.53-.6h-2.42Z"/><path class="cls-1" d="M255.86,268.19h-4.62l-.88,2.64h-2.8l4.76-12.8h2.44l4.79,12.8h-2.8ZM252,266.06h3.2l-1.61-4.79Z"/><path class="cls-1" d="M267.84,267.47a1.34,1.34,0,0,0-.53-1.14,7,7,0,0,0-1.9-.85,13.63,13.63,0,0,1-2.17-.87,3.57,3.57,0,0,1-2.18-3.18,3.1,3.1,0,0,1,.58-1.85,3.87,3.87,0,0,1,1.68-1.27,6.42,6.42,0,0,1,2.46-.45,5.75,5.75,0,0,1,2.44.49,3.86,3.86,0,0,1,1.67,1.41,3.67,3.67,0,0,1,.59,2.05h-2.64a1.74,1.74,0,0,0-.55-1.37,2.31,2.31,0,0,0-1.56-.48,2.39,2.39,0,0,0-1.5.41,1.27,1.27,0,0,0-.53,1.07,1.22,1.22,0,0,0,.62,1.05,7.37,7.37,0,0,0,1.85.79,7.93,7.93,0,0,1,3.28,1.68,3.33,3.33,0,0,1,1,2.49,3.08,3.08,0,0,1-1.26,2.61,5.47,5.47,0,0,1-3.38.95,6.41,6.41,0,0,1-2.69-.55A4.25,4.25,0,0,1,261.3,269a3.81,3.81,0,0,1-.64-2.18h2.65c0,1.42.84,2.12,2.53,2.12a2.5,2.5,0,0,0,1.47-.38A1.26,1.26,0,0,0,267.84,267.47Z"/><path class="cls-1" d="M275.35,266.32v4.51h-2.64V258h5a5.78,5.78,0,0,1,2.53.53,3.92,3.92,0,0,1,1.69,1.5,4.19,4.19,0,0,1,.58,2.21,3.72,3.72,0,0,1-1.28,3,5.4,5.4,0,0,1-3.57,1.08Zm0-2.14h2.36a2.29,2.29,0,0,0,1.59-.49,1.77,1.77,0,0,0,.55-1.4,2.09,2.09,0,0,0-.55-1.52,2.05,2.05,0,0,0-1.53-.6h-2.42Z"/><path class="cls-1" d="M295.29,264.72a7.76,7.76,0,0,1-.67,3.31,5,5,0,0,1-1.91,2.2,5.61,5.61,0,0,1-5.69,0,5.09,5.09,0,0,1-1.94-2.18,7.56,7.56,0,0,1-.69-3.27v-.63a7.62,7.62,0,0,1,.68-3.33,5,5,0,0,1,1.92-2.2,5.64,5.64,0,0,1,5.69,0,5.07,5.07,0,0,1,1.93,2.2,7.75,7.75,0,0,1,.68,3.32Zm-2.68-.58a5.4,5.4,0,0,0-.72-3.06,2.55,2.55,0,0,0-4.1,0,5.37,5.37,0,0,0-.73,3v.62a5.44,5.44,0,0,0,.72,3,2.34,2.34,0,0,0,2.08,1.08,2.29,2.29,0,0,0,2-1,5.3,5.3,0,0,0,.72-3Z"/><path class="cls-1" d="M302.39,266.14h-2.1v4.69h-2.64V258h4.76a5.41,5.41,0,0,1,3.5,1,3.51,3.51,0,0,1,1.23,2.86,3.91,3.91,0,0,1-.57,2.18,3.86,3.86,0,0,1-1.72,1.4l2.77,5.23v.12h-2.83Zm-2.1-2.13h2.13a2.14,2.14,0,0,0,1.53-.51,1.77,1.77,0,0,0,.55-1.39,1.9,1.9,0,0,0-.52-1.42,2.09,2.09,0,0,0-1.57-.52h-2.12Z"/><path class="cls-1" d="M318.78,260.17h-3.92v10.66h-2.63V260.17h-3.87V258h10.42Z"/><path class="cls-1" d="M371.44,282.36H337.6V135.43a8.1,8.1,0,0,0-8.1-8.1H224.3a8.1,8.1,0,0,0-8.1,8.1v7.89H141.85a8.11,8.11,0,0,0-8.1,8.1V298.76a8.11,8.11,0,0,0,8.1,8.1h90.28a7.06,7.06,0,0,0-5.46,6.87v55.34a7.08,7.08,0,0,0,7.07,7.07H335a7.07,7.07,0,0,0,7.06-7.07V351.83h-5v17.24a2.07,2.07,0,0,1-2.06,2.07H233.74a2.07,2.07,0,0,1-2.07-2.07V313.73a2.07,2.07,0,0,1,2.07-2.06h29.33v33.1a7.07,7.07,0,0,0,7.07,7.06h67v-5h-67a2.07,2.07,0,0,1-2.07-2.06V290.86H329.5a8.11,8.11,0,0,0,6.67-3.5h35.27a2.07,2.07,0,0,1,2.06,2.06v55.35a2.07,2.07,0,0,1-2.06,2.06H342.1v5h29.34a7.07,7.07,0,0,0,7.06-7.06V289.42A7.07,7.07,0,0,0,371.44,282.36ZM216.2,212.65l-2,2v11.69H202.46l-4.55,4.55-3.71,3.72-8.27-8.27H174.24V214.7L166,206.44l3.71-3.72,4.55-4.55V186.48h11.69l4.55-4.54,3.72-3.72,8.26,8.26h11.69v11.69l2,2.05Zm30.85,88.21H141.85a2.11,2.11,0,0,1-2.1-2.1V151.42a2.11,2.11,0,0,1,2.1-2.1H216.2v32.62H204.35L194.2,171.78,184,181.94H169.69v14.35l-10.14,10.15,10.14,10.14v14.36h14.36l10.15,10.14,10.14-10.14H216.2v51.82a8.1,8.1,0,0,0,8.1,8.1h24.85v7.9A2.11,2.11,0,0,1,247.05,300.86Zm16,5.81h-14.3a8.1,8.1,0,0,0,6.38-7.91v-7.9h7.92Zm68.53-23.91a2.1,2.1,0,0,1-2.1,2.1H224.19a2.09,2.09,0,0,1-2-2.09V135.43a2.1,2.1,0,0,1,2.1-2.1H329.5a2.1,2.1,0,0,1,2.1,2.1Z"/><path class="cls-1" d="M164.9,276.05a4,4,0,0,0-1.68-1.5,5.78,5.78,0,0,0-2.53-.52h-5v12.79h2.64v-4.51h2.31a5.35,5.35,0,0,0,3.56-1.08,3.67,3.67,0,0,0,1.29-3A4.13,4.13,0,0,0,164.9,276.05Zm-2.62,3.64a2.31,2.31,0,0,1-1.59.49h-2.36v-4h2.42a2.05,2.05,0,0,1,1.53.6,2.1,2.1,0,0,1,.55,1.52A1.79,1.79,0,0,1,162.28,279.69Z"/><path class="cls-1" d="M172.32,274h-2.45l-4.76,12.79h2.8l.88-2.63h4.62l.89,2.63h2.81Zm-2.82,8,1.59-4.79,1.61,4.79Z"/><path class="cls-1" d="M183.73,279.27a6.73,6.73,0,0,1-1.85-.79,1.23,1.23,0,0,1-.63-1,1.3,1.3,0,0,1,.53-1.08,2.46,2.46,0,0,1,1.51-.41,2.25,2.25,0,0,1,1.55.49,1.73,1.73,0,0,1,.56,1.37H188a3.71,3.71,0,0,0-.59-2.06,3.91,3.91,0,0,0-1.67-1.4,5.75,5.75,0,0,0-2.44-.5,6.24,6.24,0,0,0-2.46.46,3.8,3.8,0,0,0-1.68,1.27,3.08,3.08,0,0,0-.58,1.85,3.54,3.54,0,0,0,2.18,3.17,13.54,13.54,0,0,0,2.17.88,6.71,6.71,0,0,1,1.9.84,1.37,1.37,0,0,1,.53,1.15,1.24,1.24,0,0,1-.53,1.06,2.42,2.42,0,0,1-1.47.39c-1.69,0-2.53-.71-2.53-2.12h-2.65a3.85,3.85,0,0,0,.64,2.18,4.32,4.32,0,0,0,1.85,1.48,6.56,6.56,0,0,0,2.69.54,5.52,5.52,0,0,0,3.39-.95,3.07,3.07,0,0,0,1.25-2.6,3.33,3.33,0,0,0-1-2.5A8,8,0,0,0,183.73,279.27Z"/><path class="cls-1" d="M199.48,276.05a4.05,4.05,0,0,0-1.69-1.5,5.78,5.78,0,0,0-2.53-.52h-5v12.79h2.63v-4.51h2.31a5.4,5.4,0,0,0,3.57-1.08,3.67,3.67,0,0,0,1.29-3A4.22,4.22,0,0,0,199.48,276.05Zm-2.63,3.64a2.29,2.29,0,0,1-1.59.49H192.9v-4h2.42a2.05,2.05,0,0,1,1.53.6,2.1,2.1,0,0,1,.55,1.52A1.79,1.79,0,0,1,196.85,279.69Z"/><path class="cls-1" d="M212.16,276.83a5.1,5.1,0,0,0-1.93-2.21,5.64,5.64,0,0,0-5.69,0,5.08,5.08,0,0,0-1.92,2.21,7.69,7.69,0,0,0-.68,3.32v.64a7.51,7.51,0,0,0,.69,3.26,5,5,0,0,0,1.94,2.18,5.64,5.64,0,0,0,5.69,0,5.08,5.08,0,0,0,1.91-2.2,7.79,7.79,0,0,0,.67-3.31v-.58A7.67,7.67,0,0,0,212.16,276.83Zm-2,3.93a5.43,5.43,0,0,1-.73,3,2.31,2.31,0,0,1-2,1,2.34,2.34,0,0,1-2.08-1.08,5.47,5.47,0,0,1-.72-3v-.63a5.37,5.37,0,0,1,.73-3,2.36,2.36,0,0,1,2-1,2.33,2.33,0,0,1,2.05,1.05,5.28,5.28,0,0,1,.73,3.06Z"/><path class="cls-1" d="M337.1,346.83v5h5v-5Z"/><rect class="cls-1" x="341" y="310.53" width="23.4" height="12.2" rx="2.9"/><rect class="cls-1" x="345.17" y="291.83" width="17.53" height="3.8"/><rect class="cls-1" x="322.83" y="291.83" width="17.53" height="3.8"/><rect class="cls-1" x="300.1" y="291.83" width="17.53" height="3.8"/><rect class="cls-1" x="277.61" y="291.83" width="17.53" height="3.8"/><path class="cls-1" d="M347.88,333.28v.21a1.3,1.3,0,0,0-.78.47,7,7,0,0,0-.73,1.37l-2.74,6.07h-.19l-2.72-6.31a8.5,8.5,0,0,0-.66-1.35,1,1,0,0,0-.63-.25v-.21h3.81v.21h-.13a1.43,1.43,0,0,0-.71.13.29.29,0,0,0-.13.26.65.65,0,0,0,.05.25c0,.09.13.35.31.77l1.7,4,1.57-3.52c.18-.42.3-.71.34-.85a1.56,1.56,0,0,0,.07-.37.48.48,0,0,0-.1-.31.58.58,0,0,0-.27-.21,2,2,0,0,0-.67-.1v-.21Z"/><path class="cls-1" d="M352.69,341v.22h-4.15V341h.26a1.13,1.13,0,0,0,.56-.12.5.5,0,0,0,.23-.28,2.13,2.13,0,0,0,.07-.74v-5.22a2.4,2.4,0,0,0-.07-.77.54.54,0,0,0-.26-.26,1,1,0,0,0-.53-.12h-.26v-.21h4.15v.21h-.26a1,1,0,0,0-.56.13.52.52,0,0,0-.24.28,2.57,2.57,0,0,0-.06.74v5.22a2.28,2.28,0,0,0,.07.76.56.56,0,0,0,.26.27,1,1,0,0,0,.53.11Z"/><path class="cls-1" d="M358.91,333.09l.06,2.65h-.24a2.7,2.7,0,0,0-.83-1.6,2.15,2.15,0,0,0-1.44-.61,1.36,1.36,0,0,0-.95.32,1,1,0,0,0-.35.74.94.94,0,0,0,.12.47,2.17,2.17,0,0,0,.55.54,12.11,12.11,0,0,0,1.27.69,5.59,5.59,0,0,1,1.88,1.29,2.2,2.2,0,0,1,.48,1.4,2.28,2.28,0,0,1-.77,1.71,2.81,2.81,0,0,1-2,.72,3.13,3.13,0,0,1-.7-.08,4.82,4.82,0,0,1-.84-.28,1.25,1.25,0,0,0-.47-.12.58.58,0,0,0-.32.12.76.76,0,0,0-.27.35h-.22v-3h.22a3.39,3.39,0,0,0,1,1.93,2.31,2.31,0,0,0,1.59.67,1.48,1.48,0,0,0,1-.36,1.09,1.09,0,0,0,.39-.83,1.11,1.11,0,0,0-.15-.55,1.87,1.87,0,0,0-.45-.5,8,8,0,0,0-1.08-.62,9.31,9.31,0,0,1-1.56-.9,2.73,2.73,0,0,1-.73-.84,2.08,2.08,0,0,1-.25-1,2.19,2.19,0,0,1,.69-1.62,2.47,2.47,0,0,1,1.76-.67,3.11,3.11,0,0,1,1.42.36,1.54,1.54,0,0,0,.56.19.32.32,0,0,0,.24-.09,1.34,1.34,0,0,0,.16-.46Z"/><path class="cls-1" d="M365.24,339h-2.81l-.33.77a1.74,1.74,0,0,0-.17.64.52.52,0,0,0,.27.49,2.12,2.12,0,0,0,.78.14v.22h-2.64V341a1.17,1.17,0,0,0,.7-.35,4.71,4.71,0,0,0,.68-1.2l2.84-6.34h.11l2.87,6.52a4.09,4.09,0,0,0,.67,1.16,1,1,0,0,0,.57.21v.22h-3.85V341h.16a1.29,1.29,0,0,0,.65-.12.32.32,0,0,0,.13-.27.57.57,0,0,0,0-.22,2.7,2.7,0,0,0-.17-.44Zm-.2-.43-1.19-2.74-1.22,2.74Z"/><path class="cls-1" d="M337.1,346.83v5h5v-5Z"/><rect class="cls-1" x="241.22" y="316.14" width="17.53" height="3.8"/><path class="cls-1" d="M311.48,357.58v.22a1.28,1.28,0,0,0-.77.46,7.32,7.32,0,0,0-.74,1.38l-2.73,6.07H307l-2.72-6.32a8.68,8.68,0,0,0-.66-1.34,1,1,0,0,0-.63-.25v-.22h3.81v.22h-.13a1.28,1.28,0,0,0-.7.13.29.29,0,0,0-.14.26.92.92,0,0,0,.05.25c0,.09.14.35.31.77l1.7,4,1.57-3.52a7.4,7.4,0,0,0,.34-.85,1.18,1.18,0,0,0,.07-.37.54.54,0,0,0-.09-.31.67.67,0,0,0-.28-.21,1.78,1.78,0,0,0-.67-.1v-.22Z"/><path class="cls-1" d="M316.3,365.31v.22h-4.16v-.22h.27a1.09,1.09,0,0,0,.55-.12.56.56,0,0,0,.24-.28,2.62,2.62,0,0,0,.06-.74v-5.23a2.81,2.81,0,0,0-.06-.76.59.59,0,0,0-.26-.26,1,1,0,0,0-.53-.12h-.27v-.22h4.16v.22H316a1.09,1.09,0,0,0-.55.12.5.5,0,0,0-.24.29,2.1,2.1,0,0,0-.07.73v5.23a2.28,2.28,0,0,0,.07.76.6.6,0,0,0,.26.27,1.13,1.13,0,0,0,.53.11Z"/><path class="cls-1" d="M322.51,357.4l.06,2.65h-.24a2.7,2.7,0,0,0-.83-1.6,2.1,2.1,0,0,0-1.44-.61,1.38,1.38,0,0,0-.95.32,1,1,0,0,0-.35.74,1,1,0,0,0,.13.47,2,2,0,0,0,.54.54,13.33,13.33,0,0,0,1.27.69,5.45,5.45,0,0,1,1.88,1.29,2.21,2.21,0,0,1,.49,1.4,2.25,2.25,0,0,1-.78,1.71,2.8,2.8,0,0,1-2,.72,3.22,3.22,0,0,1-.71-.08,5.66,5.66,0,0,1-.84-.29,1.42,1.42,0,0,0-.46-.11.68.68,0,0,0-.33.11.86.86,0,0,0-.27.36h-.22v-3h.22a3.39,3.39,0,0,0,1,1.93,2.31,2.31,0,0,0,1.59.67,1.46,1.46,0,0,0,1-.36,1.08,1.08,0,0,0,.24-1.38,1.87,1.87,0,0,0-.45-.5,6.86,6.86,0,0,0-1.08-.62,9.31,9.31,0,0,1-1.56-.9,2.87,2.87,0,0,1-.73-.84,2.08,2.08,0,0,1-.25-1,2.16,2.16,0,0,1,.7-1.62,2.45,2.45,0,0,1,1.75-.67,2.66,2.66,0,0,1,.75.1,2.92,2.92,0,0,1,.67.26,1.78,1.78,0,0,0,.56.19.3.3,0,0,0,.24-.1,1,1,0,0,0,.16-.45Z"/><path class="cls-1" d="M328.84,363.27H326l-.33.77a1.74,1.74,0,0,0-.17.64.52.52,0,0,0,.27.49,2.36,2.36,0,0,0,.78.14v.22h-2.64v-.22a1.15,1.15,0,0,0,.7-.35,4.42,4.42,0,0,0,.68-1.2l2.84-6.34h.12l2.86,6.52a3.82,3.82,0,0,0,.68,1.16.92.92,0,0,0,.56.21v.22h-3.85v-.22h.16a1.15,1.15,0,0,0,.65-.13.3.3,0,0,0,.13-.27.76.76,0,0,0,0-.21s-.07-.18-.18-.44Zm-.2-.44-1.18-2.73-1.22,2.73Z"/></svg>