<svg xmlns="http://www.w3.org/2000/svg" width="21.999" height="18.614" viewBox="0 0 21.999 18.614">
  <path id="a80dfab7e82d37ef26c07fe3b6d5c530" d="M22.461,5H5.538A2.538,2.538,0,0,0,3,7.538v9.307a2.538,2.538,0,0,0,2.538,2.538h.846v3.384a.846.846,0,0,0,.508.778.931.931,0,0,0,.338.068.846.846,0,0,0,.575-.228l4.307-4H22.461A2.538,2.538,0,0,0,25,16.846V7.538A2.538,2.538,0,0,0,22.461,5ZM16.538,15.153H8.077a.846.846,0,1,1,0-1.692h8.461a.846.846,0,1,1,0,1.692Zm3.384-4.231H8.077a.846.846,0,1,1,0-1.692H19.922a.846.846,0,0,1,0,1.692Z" transform="translate(-3 -5)" fill="#fff"/>
</svg>
