<svg xmlns="http://www.w3.org/2000/svg" width="20.516" height="20.517" viewBox="0 0 20.516 20.517">
  <path id="a6885eb6e001cb4ac46645863295fba3" d="M20.147,17.775C19.514,19.7,17.033,20.66,15.26,20.5a15.586,15.586,0,0,1-7.055-2.917,23.237,23.237,0,0,1-7.3-8.707C-.226,6.464-.48,3.5,1.206,1.3A2.9,2.9,0,0,1,3.518,0C4.924-.064,5.121.74,5.6,1.993c.36.937.84,1.893,1.108,2.864.5,1.812-1.253,1.888-1.474,3.369-.137.934.994,2.187,1.506,2.853a13.821,13.821,0,0,0,3.567,3.287c.78.491,2.035,1.376,2.927.888,1.373-.752,1.245-3.068,3.164-2.284a30.9,30.9,0,0,1,2.907,1.5c1.468.789,1.4,1.607.84,3.306h0" transform="translate(0 0)" fill="#fff" fill-rule="evenodd"/>
</svg>
