<svg id="Layer_1" data-name="Layer 1" xmlns="http://www.w3.org/2000/svg" viewBox="0 0 499.54 499.54"><defs><style>.cls-1{fill:#0071c5;}</style></defs><path class="cls-1" d="M425.55,176V76.7H326.22l-73-73-73,73H77V180L6.74,250.18,77,320.41v99.33h99.33l73,73,73-73H425.56V316.49l70.23-70.23ZM412.27,311.29v95.37H316.9l-13.07,13.08-54.37,54.37L182,406.67H90.26V314.91L77,301.63,25.38,250,77,198.43l13.29-13.28V89.78h95.37l13-13.08,54.37-54.37,67.44,67.44h91.76v91.76l13.28,13.28,51.6,51.6L425.56,298Z"/><path class="cls-1" d="M361.46,293c-9.24-41.75-29.5-106.65-73.54-178.66l-1.75-2.87-13.26,8.76,1.58,2.66c.09.15,4.37,7.43,10.74,20-32.62-7-56.5-2.49-68.13,1,6.63-13.17,11.14-20.81,11.23-21l1.58-2.66-13.26-8.76-1.76,2.87c-44,72-64.29,136.91-73.53,178.66-10,45.36-9.63,73.27-9.61,74.43l.06,3.19H371l.06-3.19C371.09,366.23,371.49,338.32,361.46,293ZM138.28,364.08c.2-8.57,1.48-33.9,9.48-70,9-40.66,28.63-103.55,70.93-173.54l2.51,1.66a585.47,585.47,0,0,0-34.9,75.36c-16,41.83-34.28,104.34-31.77,166.49Zm54-164c7.17-18.78,14.51-35.14,20.68-47.89.9-.37,2.4-.94,4.45-1.59-3,19.72-14,96.34-23.45,213.53H161C158.51,303,176.57,241.31,192.32,200Zm34.43,164h-6.9v-42.5h6.9Zm-14.28-49v-5.3h77.68v5.3Zm57.48,49h-36.7v-42.5H270Zm13.4,0h-6.9v-42.5h6.9Zm6.5,0v-42.5h6.8v-18.3H206v18.3h7.38v42.5H200.52c10-123.55,21.68-201.74,23.79-215.39,11.41-2.64,30.27-4.92,54.6-.46,1.91,12.27,13.73,90.82,23.86,215.85Zm51.93,0H309.29C299.65,245,288.46,167.75,285.7,149.62c1.08.24,2.17.5,3.28.78,6.33,13,14,30,21.51,49.63C326.24,241.31,344.31,303,341.78,364.08Zm6.51,0c2.5-62.15-15.8-124.66-31.77-166.49a585.47,585.47,0,0,0-34.9-75.36l2.51-1.66c42.29,70,61.91,132.88,70.93,173.54,8,36.07,9.28,61.4,9.48,70Z"/><rect class="cls-1" x="228.6" y="150.88" width="46" height="6.5"/><rect class="cls-1" x="222.42" y="165.06" width="6.5" height="8.27"/><rect class="cls-1" x="222.42" y="179.51" width="6.5" height="8.27"/><rect class="cls-1" x="222.42" y="195.03" width="6.5" height="9.21"/><rect class="cls-1" x="222.42" y="211.12" width="6.5" height="9.21"/><rect class="cls-1" x="222.42" y="227.16" width="6.5" height="9.21"/><rect class="cls-1" x="222.42" y="243.25" width="6.5" height="9.21"/><rect class="cls-1" x="222.42" y="262.73" width="6.5" height="9.21"/><rect class="cls-1" x="222.42" y="278.82" width="6.5" height="9.21"/><rect class="cls-1" x="239.48" y="165.06" width="6.5" height="8.27"/><rect class="cls-1" x="239.48" y="179.51" width="6.5" height="8.27"/><rect class="cls-1" x="239.48" y="195.03" width="6.5" height="9.21"/><rect class="cls-1" x="239.48" y="211.12" width="6.5" height="9.21"/><rect class="cls-1" x="239.48" y="227.16" width="6.5" height="9.21"/><rect class="cls-1" x="239.48" y="243.25" width="6.5" height="9.21"/><rect class="cls-1" x="239.48" y="262.73" width="6.5" height="9.21"/><rect class="cls-1" x="239.48" y="278.82" width="6.5" height="9.21"/><rect class="cls-1" x="256.82" y="165.06" width="6.5" height="8.27"/><rect class="cls-1" x="256.82" y="179.51" width="6.5" height="8.27"/><rect class="cls-1" x="256.82" y="195.03" width="6.5" height="9.21"/><rect class="cls-1" x="256.82" y="211.12" width="6.5" height="9.21"/><rect class="cls-1" x="256.82" y="227.16" width="6.5" height="9.21"/><rect class="cls-1" x="256.82" y="243.25" width="6.5" height="9.21"/><rect class="cls-1" x="256.82" y="262.73" width="6.5" height="9.21"/><rect class="cls-1" x="256.82" y="278.82" width="6.5" height="9.21"/><rect class="cls-1" x="273.88" y="165.06" width="6.5" height="8.27"/><rect class="cls-1" x="273.88" y="179.51" width="6.5" height="8.27"/><rect class="cls-1" x="273.88" y="195.03" width="6.5" height="9.21"/><rect class="cls-1" x="273.88" y="211.12" width="6.5" height="9.21"/><rect class="cls-1" x="273.88" y="227.16" width="6.5" height="9.21"/><rect class="cls-1" x="273.88" y="243.25" width="6.5" height="9.21"/><rect class="cls-1" x="273.88" y="262.73" width="6.5" height="9.21"/><rect class="cls-1" x="273.88" y="278.82" width="6.5" height="9.21"/></svg>