<svg id="Layer_1" data-name="Layer 1" xmlns="http://www.w3.org/2000/svg" viewBox="0 0 499.54 499.54"><defs><style>.cls-1{fill:#0071c5;}</style></defs><path class="cls-1" d="M425.55,177.55V78.25H326.22l-73-73-73,73H77v103.3L6.74,251.73,77,322v99.33h99.33l73,73,73-73H425.56V318l70.23-70.23ZM412.27,312.84v95.37H316.9l-13.07,13.08-54.37,54.37L182,408.22H90.26V316.46L77,303.18,25.38,251.55,77,200,90.29,186.7V91.33h95.37l13-13.08,54.37-54.37,67.44,67.44h91.76v91.76l13.28,13.28,51.6,51.6-51.59,51.59Z"/><path class="cls-1" d="M144.74,262.41h-5.3a2.57,2.57,0,1,1,0-5.14h5.3a2.57,2.57,0,1,1,0,5.14Z"/><path class="cls-1" d="M158.88,262.41h-5.29a2.57,2.57,0,1,1,0-5.14h5.29a2.57,2.57,0,1,1,0,5.14Z"/><path class="cls-1" d="M173,262.41h-5.3a2.57,2.57,0,1,1,0-5.14H173a2.57,2.57,0,1,1,0,5.14Z"/><path class="cls-1" d="M214,250.59a2.54,2.54,0,0,1-1.16.28h1.57l.64-1.27A2.51,2.51,0,0,1,214,250.59Zm38.61-75.46.28.58.3-.58Z"/><path class="cls-1" d="M282.47,201.62A46.54,46.54,0,0,0,267,204.25l-14.1-28.54-.28-.58-5.54-11.22H279c1.13.52,4.39,2.32,4.39,5.47s-3.63,4.05-4.49,4.24H264a2.58,2.58,0,1,0,0,5.15H279.1l.43,0c3.09-.52,9-3.14,9-9.35,0-7.39-7.78-10.34-8.11-10.46l-.43-.15H238.81l8.09,16.36H178.61l-5.7-11.22h21.32a2.57,2.57,0,1,0,0-5.14H157a2.57,2.57,0,0,0,0,5.14h10.1l6.75,13.31-14.16,28.26a46.67,46.67,0,1,0,28,45.39h25.13a2.54,2.54,0,0,0,1.16-.28,2.51,2.51,0,0,0,1.05-1l.15-.29L250,181.41l12.25,24.82a46.66,46.66,0,1,0,20.21-4.61ZM141.14,289.81a41.52,41.52,0,1,1,16.28-79.72L137,250.87h45.6A41.56,41.56,0,0,1,141.14,289.81Zm4.17-44.09L162,212.4a41.56,41.56,0,0,1,20.57,33.32Zm42.43,0a46.73,46.73,0,0,0-23.42-37.93l12.47-24.87,31.88,62.8Zm25.14-3.09-31.66-62.35H244.8Zm69.59,47.18a41.52,41.52,0,0,1-17.93-79l19.07,38.59a2.58,2.58,0,0,0,2.31,1.44,2.61,2.61,0,0,0,1.14-.27,2.57,2.57,0,0,0,1.16-3.44l-18.9-38.26a41.52,41.52,0,1,1,13.15,80.91Z"/><path class="cls-1" d="M311.46,323.35a1.8,1.8,0,0,1-1.08-.36l-5.77-4.45a1.78,1.78,0,1,1,2.17-2.81l5.77,4.44a1.78,1.78,0,0,1,.32,2.49A1.76,1.76,0,0,1,311.46,323.35Z"/><path class="cls-1" d="M317.43,319.33a1.76,1.76,0,0,1-1.4-.68l-.34-.43a1.77,1.77,0,1,1,2.8-2.18l.34.43a1.77,1.77,0,0,1-1.4,2.86Z"/><path class="cls-1" d="M391.3,187.65c1.88-2.23,3.83-4.53,3.69-7.57-.27-5.67-14.21-11.74-32.46-11.34-18.41.38-30.12,4.09-30.61,4.25l-1,.32-.21,1c-.2,1-.61,3.55.17,5,.15.26.37.59.7,1.1,1.11,1.66,3.72,5.57,3.44,8a40.33,40.33,0,0,1-1,4.46c-.9,3.62-1.93,7.72-1.29,10.92.79,3.93,3.8,10.22,4.59,11.84l.05,76.75a20.41,20.41,0,0,1-.76,6,28.33,28.33,0,0,0-.78,3.76c-.79,4.65-2.25,13.23-6.18,16.64-.21.07-.47.16-.76.28-.3-2.53-1.5-8.47-6.21-10.38-4.35-1.75-9.35-1.08-11.27-.72-1.83-1.17-6.91-3.92-10.91-1.29-3.43,2.26-5.32,6.72-6,8.67-3.65,1.16-11.69,4.28-11.25,9a17.6,17.6,0,0,0,2.12,5.94c1,2,2,4,1.52,5.21-.76,1.76-3.88,7.44-12.26,6.41l-.68-.08-.55.39c-2.16,1.53-9.06,6.84-7.25,11.3,1.3,3.21,6.49,3.71,11.07,4.15a26.26,26.26,0,0,1,3.29.42c3.27,4.14,8.18,6.28,14.18,6.28a29.82,29.82,0,0,0,6.38-.73c4,.55,37.26,4.32,55.29-19.66,18.25-24.27,20.47-52.45,20.6-54.26l9.22-74.91c.82-1.44,3.83-7.07,3.46-11.7a16.94,16.94,0,0,0-1.37-5.06c-.84-2.12-1.4-3.51-.32-5.76A22.28,22.28,0,0,1,391.3,187.65Zm-6.49,3.1c-1.76,3.66-.71,6.29.21,8.61a13.36,13.36,0,0,1,1.13,4c.27,3.39-2.19,8.31-3.16,9.91l-.19.33-9.32,75.69v.1c0,.29-2.09,28.74-19.89,52.42-17.5,23.26-51.91,18.29-52.26,18.24l-.33,0-.33.08c-7.85,1.78-13.89.26-17.45-4.4l0-.07c-.82-1.06-2.4-1.21-5.55-1.52-2.09-.2-7.63-.73-8.12-1.94s2.18-4.22,5.47-6.68c8.18.71,13.23-3.93,15.24-8.62a5.77,5.77,0,0,0,.24-3.6l3.47-1.28a1.77,1.77,0,0,0-1.23-3.33L289.22,330c-.2-.42-.42-.84-.62-1.26a15.38,15.38,0,0,1-1.77-4.69c-.13-1.34,4.55-4,9.62-5.51l.93-.29.27-.93c0-.06,1.59-5.47,4.85-7.62,2.75-1.8,7.47,1.61,7.52,1.64l.68.51.81-.2c.06,0,5.55-1.36,9.89.39a6.38,6.38,0,0,1,3.19,3.94,15.25,15.25,0,0,1,.9,4.42,1.65,1.65,0,0,0,0,.31c-2,1.15-4.07,2.77-4.75,4.82a19.13,19.13,0,0,1-2.45-2.52,1.77,1.77,0,0,0-2.49-.28,1.79,1.79,0,0,0-.27,2.5c2.69,3.35,4.92,4.78,6.64,4.28a2.77,2.77,0,0,0,1.9-2.66c.17-1.65,4.19-3.81,7-4.74l.3-.1.25-.19c5.16-4.12,6.75-13.44,7.7-19a30.63,30.63,0,0,1,.63-3.17,24.48,24.48,0,0,0,1-7.23l-.05-77.11v-.42l-.19-.37c0-.08-3.67-7.36-4.47-11.34-.48-2.41.44-6.1,1.26-9.35a40.75,40.75,0,0,0,1-4.93c.43-3.73-2.56-8.22-4-10.38l-.51-.77a5.42,5.42,0,0,1,0-1.65,120.07,120.07,0,0,1,28.55-3.77c18.33-.39,28.75,5.83,28.84,8,.08,1.64-1.21,3.17-2.85,5.1A25.54,25.54,0,0,0,384.81,190.75Z"/></svg>