<svg id="Layer_1" data-name="Layer 1" xmlns="http://www.w3.org/2000/svg" viewBox="0 0 499.54 499.54"><defs><style>.cls-1{fill:#0071c5;}</style></defs><path class="cls-1" d="M425.55,177.55V78.25H326.22l-73-73-73,73H77v103.3L6.74,251.73,77,322v99.33h99.33l73,73,73-73H425.56V318l70.23-70.23ZM412.27,312.84v95.37H316.9l-13.07,13.08-54.37,54.37L182,408.22H90.26V316.46L77,303.18,25.38,251.55,77,200,90.29,186.7V91.33h95.37l13-13.08,54.37-54.37,67.44,67.44h91.76v91.76l13.28,13.28,51.6,51.6-51.59,51.59Z"/><path class="cls-1" d="M295.32,219.22a8,8,0,0,0-2.73-6.53c-6.7-6.25-13.3-12.6-19.73-19.13a10.6,10.6,0,0,0-8.29-3.43q-51.7.18-103.42,0c-4,0-5.32.87-5.3,5.13.2,28.48.11,57,.11,85.44s.11,57-.12,85.44c0,4.54,1.28,5.41,5.57,5.39q64.44-.25,128.89,0c3.82,0,5.08-.81,5.07-4.88Q295.16,292.92,295.32,219.22Zm-12.05,53.65c0,27.14-.14,54.27,0,81.41,0,3.85-.88,5.05-4.9,5q-52.94-.26-105.88,0c-3.86,0-4.65-1.15-4.63-4.79.16-24.64.09-49.28.09-73.92,0-24.47.07-49-.1-73.42,0-3.87.9-5.06,4.93-5q42.94.27,85.9,0c3.74,0,5.09,1,4.75,4.73-.3,3.3.15,6.67-.12,10s.66,4.86,4.32,4.53c3.47-.3,7,.19,10.47-.13,4.07-.38,5.42.88,5.34,5.16C283.15,241.9,283.29,257.39,283.27,272.87Z"/><path class="cls-1" d="M343.7,313.54c0,3.63-.75,5.31-4.63,4.73a33.07,33.07,0,0,0-5,0c-7.53,0-9.58-2.71-7.65-10.11.22-.84.41-1.81,1.43-1.71,4.27.45,3.79-2.4,3.79-5.12,0-42.64-.09-85.27.07-127.91,0-4.14-1.06-5.57-5.22-5.2-4,.36-8,0-12,.11-2.16.07-2.95-.74-2.89-2.89.1-4.16-.1-8.34.07-12.49.12-2.68-.55-3.82-3.54-3.81q-44.22.15-88.43,0c-3.5,0-4,1.62-3.54,4.25.91,5.42-2.69,4.78-6.07,4.79s-6.36.58-5.8-4.6a89.14,89.14,0,0,0,0-13c-.09-2.44.44-3.59,3.25-3.58q53.7.12,107.41,0c2.29,0,3.68,1.07,5.14,2.51,6.89,6.76,13.75,13.57,20.8,20.17a8.54,8.54,0,0,1,2.8,7c-.1,24.48-.06,49-.06,73.45S343.54,289.05,343.7,313.54Z"/><path class="cls-1" d="M318.93,337.16c.07,5.47-1.69,7-6.64,6.28-1.31-.19-2.69.13-4-.07-2.18-.35-5.48,1.39-6.32-1.08-1-2.83-.3-6.24-.21-9.39,0-.45.85-1.28,1.24-1.25,4.64.47,3.85-2.74,3.85-5.49,0-42.46-.08-84.92.11-127.37,0-4.41-1-5.71-5.48-5.51-4.72.22-10.89,2.21-13.89-.87-2.73-2.81-.89-8.89-.69-13.49.16-3.78-1-4.71-4.72-4.69q-42.7.24-85.4,0c-4,0-5.93.86-5.23,5.12.49,3-.7,4.35-3.84,4a26,26,0,0,0-5,0c-2.38.18-3.22-.78-3.15-3.16.14-4.83.17-9.66,0-14.48-.11-2.78,1.11-3.31,3.56-3.3q53.44.07,106.88,0c2.48,0,4,1.13,5.58,2.68,6.54,6.41,13,12.88,19.73,19.11a10,10,0,0,1,3.54,8.18c-.15,24.31-.08,48.62-.08,72.93C318.78,289.21,318.58,313.19,318.93,337.16Z"/><path class="cls-1" d="M267.53,311.93c0,4.45-3.51,4.9-7.15,4.88-11.64-.08-23.27,0-34.91,0s-23.27,0-34.9,0c-3.67,0-6.94-.57-6.77-5.19.16-4.41,3.46-4.52,6.83-4.52q34.91.06,69.81,0C264.1,307.07,267.56,307.43,267.53,311.93Z"/><path class="cls-1" d="M266,333.81c-.13,4-3,4.55-6.33,4.53-12-.07-23.91,0-35.87,0-11.63,0-23.25-.08-34.88.05-3.62,0-6.64-.79-6.69-4.81s3.14-4.84,6.66-4.83q35.37.06,70.75,0C263.16,328.71,266.15,329.5,266,333.81Z"/><path class="cls-1" d="M267.56,288.88c.07,3.5-2.39,4.9-5.63,4.91-12.13,0-24.26,0-36.39,0v0H192.13c-1.16,0-2.33,0-3.49-.06-3.08-.25-5-1.73-4.88-5.05s2.16-4.58,5.3-4.58q36.39,0,72.79,0C265.23,284.1,267.5,285.47,267.56,288.88Z"/><path class="cls-1" d="M267.54,244.87c-.08,3.79-2.91,4.65-6.33,4.64q-35.62-.07-71.26,0c-3.35,0-6.12-.72-6.17-4.74s2.59-4.86,6-4.84c12,.06,23.92,0,35.88,0,11.79,0,23.59.07,35.38,0C264.7,239.87,267.63,240.75,267.54,244.87Z"/><path class="cls-1" d="M267.55,267.72c-.06,4.17-3.26,4.75-6.77,4.73-11.66-.08-23.32,0-35,0-11.83,0-23.65,0-35.47,0-3.47,0-6.58-.45-6.55-4.85s3.32-4.66,6.69-4.66q35.22,0,70.44,0C264.48,262.89,267.6,263.54,267.55,267.72Z"/></svg>