<svg id="Layer_1" data-name="Layer 1" xmlns="http://www.w3.org/2000/svg" viewBox="0 0 499.54 499.54"><defs><style>.cls-1{fill:#0071c5;}.cls-2{fill:none;stroke:#0071c5;stroke-miterlimit:10;stroke-width:5px;}</style></defs><path class="cls-1" d="M425.55,176V76.7H326.22l-73-73-73,73H77V180L6.74,250.18,77,320.41v99.33h99.33l73,73,73-73H425.56V316.49l70.23-70.23ZM412.27,311.29v95.37H316.9l-13.07,13.08-54.37,54.37L182,406.67H90.26V314.91L77,301.63,25.38,250,77,198.43l13.29-13.28V89.78h95.37l13-13.08,54.37-54.37,67.44,67.44h91.76v91.76l13.28,13.28,51.6,51.6L425.56,298Z"/><path class="cls-1" d="M311.12,152.93a1.18,1.18,0,0,1,0,.2h0A1.17,1.17,0,0,0,311.12,152.93Z"/><path class="cls-1" d="M202.4,223.58l.68-.08s0,.17.07.45a37.32,37.32,0,0,1,2.8-5.9C204.94,219.68,203.75,221.55,202.4,223.58Zm0,0,.68-.08s0,.17.07.45a37.32,37.32,0,0,1,2.8-5.9C204.94,219.68,203.75,221.55,202.4,223.58Z"/><path class="cls-1" d="M210,245.57h-.88l.14-1.51C209.53,244.56,209.78,245.06,210,245.57Z"/><path class="cls-1" d="M280,245.57h-1.07q.38-1.12.69-2.22Z"/><path class="cls-1" d="M279.6,243.35l-3.93-23H211.43l-2.13,23.69-.14,1.51H280Zm-67.16-.78,1.73-19.2h59l3.28,19.2Z"/><line class="cls-2" x1="244.5" y1="221.87" x2="244.5" y2="244.07"/><path class="cls-1" d="M219.2,280.39a6.3,6.3,0,1,1,6.3-6.3A6.31,6.31,0,0,1,219.2,280.39Zm0-9.6a3.3,3.3,0,1,0,3.3,3.3A3.3,3.3,0,0,0,219.2,270.79Z"/><path class="cls-1" d="M272.6,280.39a6.3,6.3,0,1,1,6.3-6.3A6.31,6.31,0,0,1,272.6,280.39Zm0-9.6a3.3,3.3,0,1,0,3.3,3.3A3.3,3.3,0,0,0,272.6,270.79Z"/><rect class="cls-1" x="225" y="162.11" width="5.87" height="4"/><rect class="cls-1" x="237.9" y="162.11" width="5.87" height="4"/><rect class="cls-1" x="251.7" y="162.11" width="5.87" height="4"/><rect class="cls-1" x="264.2" y="162.11" width="5.87" height="4"/><rect class="cls-1" x="276.8" y="162.11" width="5.87" height="4"/><path class="cls-1" d="M320.44,153.47l1.29-21h-20.2l-9.8,21H263.79l6.18-17.4h-13.3l-15.54,17.4H210.88c-.9-.07-7.38-.51-12.24,1.33-2.88,1.09-9.25,4.73-14.09,7.59-3.83,2.25-7,4.15-7,4.17l-.31.23c-.54.5-3.23,3.12-2.61,5.91.52,2.36,4.14,4.88,5.68,5.86l.5.32,64.24-.67,17.54,18.55,15-4.82-9.81-14,10-.1a34.54,34.54,0,0,0,15-3.42c6.67-3.44,24.34-16.82,25.09-17.39l4.74-3.59Zm-16.37-17h13.4l-1,17H296.14Zm-45.61,3.6h5.84l-4.74,13.4H246.49ZM271.2,189.8l-7.41,2.38-17.12-18.11h13.49Zm19.68-18.91a30.63,30.63,0,0,1-13.1,3L265,174l-2.76-3.93H237.38l4,4.18-59.34.61a13.49,13.49,0,0,1-3.44-3,4.41,4.41,0,0,1,1.28-2c.69-.42,3.21-2,6.28-3.76H217v-4H193a66.08,66.08,0,0,1,7-3.57c4.25-1.61,10.5-1.08,10.56-1.08h100C304.75,161.77,295.18,168.68,290.88,170.89Z"/><path class="cls-1" d="M358.2,303.77a10.71,10.71,0,0,0-10.7,10.7,10.46,10.46,0,0,0,.72,3.85,10.69,10.69,0,0,0,18.19,3,10.63,10.63,0,0,0,2.49-6.85A10.71,10.71,0,0,0,358.2,303.77Zm6.66,14.55a7.69,7.69,0,0,1-13.32,0,7.52,7.52,0,0,1-1-3.85,7.7,7.7,0,1,1,15.4,0A7.52,7.52,0,0,1,364.86,318.32Z"/><path class="cls-1" d="M397.9,297.47c0-1.42-1.15-4.26-5.49-4.88-3.74-.54-12.93-1.37-15.19-1.57L355.5,271.84c-.63-.81-3.83-4.54-8.77-4.54h-.15c-3.78.05-7.86,0-9.36,0l-4-3.93h-16.8l-4.25,4-11,.86-.25.12a98.1,98.1,0,0,0-11.42,6.84c.2-3.62.27-7.37.17-11.21l-.1-4.05c-.71-29.14-1.22-50.18-25.93-59.37l-.44-.17-41.88.81h-.17c-.33,0-7.73.78-14.7,8l-.88-.48c-.16.29-15.78,29.12-38.3,47.24-22.33,18-58.57,21.56-58.93,21.59l-2.27.21v26.07l2.59-.09c.71,0,71.33-2.54,91.39,1.74l.26.06h1c.73,3.08,1.43,5.57,2.08,7.6h-2.51c-31.25-7.31-88.95-4.9-91.4-4.8l.22,5c.59,0,59.81-2.5,90.31,4.73l.29.07h5a10,10,0,0,0,2.21,3.42l.69.58H248a19.9,19.9,0,0,0,37-.66c23.77-.05,48.89-.16,54.61-.18a19.9,19.9,0,0,0,37.36,0H392.5a4.76,4.76,0,0,0,5.37-3.87C398.49,314.28,398,299.13,397.9,297.47ZM206,218.05c.18-.3.35-.59.53-.87,6.12-9.64,14.1-10.89,15.08-11l40.81-.79c11.16,4.29,16.54,11.5,19.24,21.43a.28.28,0,0,1,0,.09,55.61,55.61,0,0,1-2,16.45l.38,2.22h-1.07a36.15,36.15,0,0,1-7.12,12.6c-5.92,6.59-14.36,10.16-25.09,10.59-15.68.63-27.75-6.67-35.88-21.69q-.4-.75-.78-1.5h-.88l.14-1.51A75.92,75.92,0,0,1,203.15,224s0,0,0,0c-.05-.28-.07-.44-.07-.45l-.68.08C203.75,221.55,204.94,219.68,206,218.05Zm-27.34,34.58a152.35,152.35,0,0,0,11.18-12.11l.11,33.06a118.55,118.55,0,0,1-11.29,5.18Zm-16.1,12.8a75,75,0,0,0,7.92-5.55q1.62-1.31,3.18-2.67v23.42c-3.66,1.31-7.38,2.48-11.1,3.53ZM147.33,273a106.75,106.75,0,0,0,10.18-4.71V285.5c-3.45.88-6.86,1.66-10.18,2.34Zm-13.74,4.68c2.81-.8,5.75-1.72,8.74-2.79v14c-3,.56-6,1.05-8.74,1.47Zm-11.89,2.88c2.12-.43,4.43-1,6.89-1.56v12c-2.47.33-4.78.6-6.89.83Zm-10.6,1.76c1.36-.17,3.27-.44,5.6-.83v10.9c-2.32.21-4.22.36-5.6.45Zm0,16.38v-.84c10.54-.65,52.57-4.19,82.5-20.58l3-.71c1.18,10,2.43,17.81,3.64,23.89C180.65,296.69,124.11,298.26,111.1,298.68Zm99.3,18.49c-1.59-2.73-6.69-14.51-10.51-57.32a101.52,101.52,0,0,1,.5-25.31,75.25,75.25,0,0,0,6,14.78c8.64,16.05,21.94,24.47,38.55,24.47.66,0,1.33,0,2,0,12.15-.48,21.78-4.61,28.63-12.28a41.82,41.82,0,0,0,8.6-15.7c.23,4.44.35,9.19.47,14.25l.1,4.06a133.06,133.06,0,0,1-.46,14.84c-3.1,2.31-6.51,5-10.11,8.17l-37.56,6.43-5.24,11.36-.84,9.68,0,.21a7.68,7.68,0,0,0,1,2.4Zm184.53-.28a1.77,1.77,0,0,1-2.12,1.44H374.65a15.94,15.94,0,0,1-1,3,16.89,16.89,0,0,1-30.88,0,17.1,17.1,0,0,1-1-3h-3.06c-6.76,0-30.33.13-52.89.18h-3.08a16.17,16.17,0,0,1-1.06,3,16.87,16.87,0,0,1-30.37.65,6,6,0,0,1-.34-.67,16.93,16.93,0,0,1-1.06-3l-3.08,0c-4.21,0-7-.08-7.89-.14a6.37,6.37,0,0,1-3.38-1.17,5.55,5.55,0,0,1-2-2.82l.75-8.69,4.36-9.44,36.84-6.32.32-.28c2.81-2.47,5.51-4.67,8-6.62,1.92-1.48,3.74-2.81,5.43-4A109.14,109.14,0,0,1,302,271.14l11.43-.89,4.15-3.88H332l4,3.92h.6c.05,0,5.28.07,10,0,3.93,0,6.54,3.42,6.57,3.45L376,293.92l.49,0c.11,0,11.41,1,15.52,1.59,2.73.39,2.9,1.81,2.91,2C395.07,302.09,395.39,314.48,394.93,316.89Z"/><path class="cls-1" d="M277,314a10.7,10.7,0,0,0-21.39.44,10.46,10.46,0,0,0,.35,2.7,10.68,10.68,0,0,0,.45,1.35,10.36,10.36,0,0,0,1.87,3,7.65,7.65,0,0,0,.62.65,10.65,10.65,0,0,0,14.82,0,7.65,7.65,0,0,0,.62-.65,10.36,10.36,0,0,0,1.87-3,10.52,10.52,0,0,0,.8-4C277,314.32,277,314.18,277,314Zm-13.77,7.5a7.73,7.73,0,0,1-3.46-3,7.38,7.38,0,0,1-.67-1.35,7.57,7.57,0,0,1-.49-2.7,7.7,7.7,0,1,1,15.4,0,7.57,7.57,0,0,1-.49,2.7,7.47,7.47,0,0,1-.67,1.36,7.71,7.71,0,0,1-9.62,3Z"/><path class="cls-1" d="M335.49,291.77h-7.88a2.91,2.91,0,0,0-2.91,2.91v6.89h-4.2v-6.89a2.92,2.92,0,0,0-2.91-2.91h-7.88a2.92,2.92,0,0,0-2.92,2.91v6.89h-4.34v-6.89a2.92,2.92,0,0,0-2.91-2.91h-7.88a2.91,2.91,0,0,0-2.91,2.91v7.88a2.91,2.91,0,0,0,2.91,2.91h6.44v6.89a2.92,2.92,0,0,0,2.91,2.91h7.88a2.92,2.92,0,0,0,2.91-2.91v-6.89h4.05v6.89a2.92,2.92,0,0,0,2.91,2.91h7.88a2.92,2.92,0,0,0,2.91-2.91v-6.89h5.94a2.91,2.91,0,0,0,2.91-2.91v-7.88A2.92,2.92,0,0,0,335.49,291.77Zm-43.83,11.7a.9.9,0,0,1-.91-.91v-7.88a.91.91,0,0,1,.91-.91h7.88a.91.91,0,0,1,.91.91v7.88a.91.91,0,0,1-.91.91Zm18.14,8.89a.91.91,0,0,1-.91.91H301a.91.91,0,0,1-.91-.91v-6.95a2.9,2.9,0,0,0,2.17-1.84H307a2.92,2.92,0,0,0,2.74,1.9h.09Zm-.09-8.89a.91.91,0,0,1-.92-.91v-7.88a.92.92,0,0,1,.92-.91h7.88a.91.91,0,0,1,.91.91v7.88a.91.91,0,0,1-.91.91Zm17.84,8.89a.91.91,0,0,1-.91.91h-7.88a.91.91,0,0,1-.91-.91v-6.9a2.92,2.92,0,0,0,2.47-1.89h4.56a2.91,2.91,0,0,0,2.67,1.9Zm8.85-9.8a.91.91,0,0,1-.91.91h-7.88a.9.9,0,0,1-.91-.91v-7.88a.91.91,0,0,1,.91-.91h7.88a.91.91,0,0,1,.91.91Z"/></svg>